<svg xmlns="http://www.w3.org/2000/svg" viewBox="0 0 63.63 59.67"><defs><style>.cls-1{fill:#fff;}</style></defs><title>Claim</title><g id="Layer_2" data-name="Layer 2"><g id="Layer_1-2" data-name="Layer 1"><path class="cls-1" d="M62.13,11.86H39.9V8.09a8.09,8.09,0,1,0-16.18,0v3.77H1.5A1.5,1.5,0,0,0,0,13.36V58.17a1.5,1.5,0,0,0,1.5,1.5H62.13a1.5,1.5,0,0,0,1.5-1.5V13.36A1.5,1.5,0,0,0,62.13,11.86ZM26.72,8.09a5.09,5.09,0,1,1,10.18,0v9H26.72Zm-3,6.77v3.77a1.5,1.5,0,0,0,1.5,1.5H38.4a1.5,1.5,0,0,0,1.5-1.5V14.86H60.63v7.54H3V14.86ZM3,56.67V25.41H60.63V56.67Z"/><path class="cls-1" d="M23.58,41.7a6.77,6.77,0,1,0-9.89,0,8.9,8.9,0,0,0-5.78,8.57,1.5,1.5,0,0,0,1.5,1.5H27.86a1.5,1.5,0,0,0,1.5-1.5A8.9,8.9,0,0,0,23.58,41.7Zm-8.72-4.61a3.77,3.77,0,1,1,3.77,3.77A3.78,3.78,0,0,1,14.86,37.09ZM11.08,48.77c.45-2,2.06-4.91,7.56-4.91s7.11,2.89,7.56,4.91Z"/><rect class="cls-1" x="34.45" y="46.13" width="21.09" height="3"/><rect class="cls-1" x="34.45" y="40.86" width="21.09" height="3"/><rect class="cls-1" x="34.45" y="35.59" width="21.09" height="3"/><rect class="cls-1" x="34.45" y="30.31" width="10.54" height="3"/><path class="cls-1" d="M31.81,5.26a2.82,2.82,0,1,0,2.82,2.82A2.82,2.82,0,0,0,31.81,5.26Zm-.18,2.82a.18.18,0,1,1,.36,0C32,8.28,31.63,8.28,31.63,8.08Z"/></g></g></svg>