<svg xmlns="http://www.w3.org/2000/svg" viewBox="0 0 53.04 52.66"><defs><style>.cls-1{fill:#fff;}</style></defs><title>industry</title><g id="Layer_2" data-name="Layer 2"><g id="Layer_1-2" data-name="Layer 1"><path class="cls-1" d="M24.12,10.89c-3,0-5.82-1.15-8.34-2.18-3.94-1.62-6.49-2.52-9.13-.87a1.5,1.5,0,0,1-2-2.17c5.92-7.9,12.07-5.8,17.5-3.94,4.4,1.5,8.21,2.81,12.07-.63a1.5,1.5,0,0,1,2.21,2C32,9.11,27.89,10.89,24.12,10.89ZM10.69,4a23.49,23.49,0,0,1,6.23,1.92c4,1.64,7.84,3.22,12.22.33a23.23,23.23,0,0,1-8-1.71C17.29,3.23,14,2.1,10.69,4Z"/><path class="cls-1" d="M20,39.61H16.73a1.5,1.5,0,1,1,0-3H20a1.5,1.5,0,0,1,0,3Z"/><path class="cls-1" d="M20,46.14H16.73a1.5,1.5,0,0,1,0-3H20a1.5,1.5,0,1,1,0,3Z"/><path class="cls-1" d="M33,39.61H29.78a1.5,1.5,0,0,1,0-3H33a1.5,1.5,0,0,1,0,3Z"/><path class="cls-1" d="M33,46.14H29.78a1.5,1.5,0,0,1,0-3H33a1.5,1.5,0,0,1,0,3Z"/><path class="cls-1" d="M46.1,39.61H42.83a1.5,1.5,0,0,1,0-3H46.1a1.5,1.5,0,0,1,0,3Z"/><path class="cls-1" d="M46.1,46.14H42.83a1.5,1.5,0,0,1,0-3H46.1a1.5,1.5,0,0,1,0,3Z"/><path class="cls-1" d="M51.54,52.66H1.5A1.5,1.5,0,0,1,0,51.16v-17A1.51,1.51,0,0,1,0,34l3.13-22.2A1.5,1.5,0,0,1,4.63,10.5H9.84a1.5,1.5,0,0,1,1.47,1.19L15,29.63l9.58-6.22a1.5,1.5,0,0,1,2.32,1.26v4.85l10.86-6.11A1.5,1.5,0,0,1,40,24.71v4.83l10.77-6.18A1.5,1.5,0,0,1,53,24.66v26.5A1.5,1.5,0,0,1,51.54,52.66ZM3,49.66H50V27.25L39.27,33.44A1.5,1.5,0,0,1,37,32.13V27.28L26.17,33.39a1.5,1.5,0,0,1-2.24-1.31V27.43l-9.1,5.91a1.5,1.5,0,0,1-2.29-1L8.62,13.5H5.93L3,34.31Z"/></g></g></svg>