 <svg version="1.0" xmlns="http://www.w3.org/2000/svg" width="700.000000pt" height="700.000000pt" viewBox="0 0 700.000000 700.000000" preserveAspectRatio="xMidYMid meet">
<metadata>
Created by potrace 1.12, written by Peter Selinger 2001-2015
</metadata>
<g transform="translate(0.000000,700.000000) scale(0.100000,-0.100000)" fill="#fff" stroke="none">
<path d="M5730 6218 c0 -2 0 -289 0 -638 -1 -430 3 -635 10 -634 5 1 291 2
635 3 l625 1 0 635 0 635 -635 0 c-349 0 -635 -1 -635 -2z"></path>
<path d="M4860 6128 c0 -2 -1 -136 -1 -298 0 -205 3 -295 10 -294 6 1 139 2
296 3 l285 1 -2 293 -3 292 -292 3 c-161 1 -293 1 -293 0z"></path>
<path d="M4725 5307 c-3 -6 -4 -194 -3 -417 l3 -405 420 0 c330 0 420 3 419
13 -1 6 -2 194 -2 417 l-2 405 -415 0 c-324 0 -417 -3 -420 -13z"></path>
<path d="M817 5190 c-26 -5 -67 -18 -92 -30 -45 -22 -105 -86 -105 -112 0 -8
-7 -23 -15 -34 -12 -16 -14 -230 -15 -1592 l0 -1573 -33 -43 c-17 -23 -55 -69
-84 -102 -29 -32 -134 -158 -234 -279 -99 -121 -194 -235 -210 -253 -33 -38
-39 -93 -14 -126 8 -11 15 -27 15 -37 0 -28 86 -137 131 -165 23 -14 67 -34
98 -45 54 -18 144 -19 2954 -19 3121 0 2936 -3 3032 47 41 21 122 101 141 138
19 38 54 140 54 157 0 7 -50 72 -111 143 -60 72 -131 157 -156 190 -26 33 -58
71 -71 85 -14 14 -50 57 -80 95 -31 39 -59 72 -62 75 -3 3 -32 36 -63 73 l-58
68 1 576 c1 316 -1 577 -3 579 -2 3 -77 6 -165 7 l-161 2 -3 -400 c-3 -398 -3
-400 -26 -437 -29 -46 -77 -83 -133 -103 -39 -13 -291 -15 -2134 -15 -2328 0
-2139 -6 -2217 68 -73 70 -68 -43 -68 1396 0 1264 0 1298 19 1335 22 42 80 97
118 112 14 5 512 9 1239 9 l1215 0 -3 108 -3 107 -1325 1 c-729 1 -1346 -2
-1373 -6z m3244 -3882 c24 -29 61 -71 82 -94 73 -81 155 -74 -928 -74 -706 0
-965 3 -965 11 0 6 38 56 86 110 l85 99 798 0 799 0 43 -52z m-324 -310 c29
-27 29 -45 1 -75 l-21 -23 -497 0 c-432 0 -498 2 -518 16 -26 18 -29 60 -5 86
15 17 44 18 516 18 500 0 501 0 524 -22z"></path>
<path d="M3794 5055 c-3 -6 -3 -138 -2 -294 l3 -283 290 2 c159 0 292 4 295 8
3 4 4 135 2 292 l-3 285 -291 0 c-187 0 -292 -4 -294 -10z"></path>
<path d="M4036 4321 c-4 -6 -7 -140 -7 -298 l-1 -288 289 0 288 0 3 293 2 292
-269 0 c-148 0 -276 3 -284 6 -8 3 -18 1 -21 -5z"></path>
<path d="M5355 4288 c-3 -7 -4 -237 -3 -511 l3 -497 499 -1 c274 0 500 2 503
5 6 6 4 996 -2 1007 -4 5 -208 9 -501 9 -386 0 -496 -3 -499 -12z"></path>
<path d="M3145 4108 c-3 -7 -4 -119 -3 -248 l3 -235 248 -3 247 -2 0 245 0
245 -229 0 c-126 0 -236 3 -245 6 -9 3 -18 0 -21 -8z"></path>
<path d="M4574 3661 c-2 -2 -4 -134 -4 -293 l0 -288 290 2 291 3 0 283 c0 156
-2 286 -4 289 -6 6 -567 10 -573 4z"></path>
<path d="M3637 3483 c-12 -11 -8 -471 3 -478 12 -8 469 -9 476 -2 3 3 6 111 7
241 2 188 -1 237 -11 241 -20 8 -468 6 -475 -2z"></path>
<path d="M2835 3417 c-3 -7 -4 -117 -3 -245 l3 -233 239 0 c131 0 243 4 248 9
4 4 7 114 6 243 l-3 234 -243 3 c-191 2 -244 0 -247 -11z"></path>
</g>
</svg>