 <svg version="1.0" xmlns="http://www.w3.org/2000/svg" width="700.000000pt" height="700.000000pt" viewBox="0 0 700.000000 700.000000" preserveAspectRatio="xMidYMid meet">
<metadata>
Created by potrace 1.12, written by Peter Selinger 2001-2015
</metadata>
<g transform="translate(0.000000,700.000000) scale(0.100000,-0.100000)" fill="#fff" stroke="none">
<path d="M2654 6795 c-10 -8 -33 -15 -50 -15 -17 0 -37 -7 -44 -15 -7 -8 -20
-15 -30 -15 -10 0 -23 -7 -30 -15 -7 -8 -19 -15 -27 -15 -18 0 -189 -170 -203
-202 -5 -12 -14 -30 -19 -38 -29 -51 -41 -81 -41 -102 -1 -12 -7 -34 -15 -48
-10 -17 -14 -58 -15 -131 0 -73 -4 -110 -12 -116 -7 -6 -33 -13 -58 -16 -25
-3 -59 -13 -75 -21 -17 -9 -37 -16 -46 -16 -9 0 -30 -7 -45 -15 -16 -8 -38
-15 -49 -15 -11 0 -29 -7 -39 -15 -11 -8 -30 -15 -42 -15 -12 0 -27 -7 -34
-15 -7 -8 -19 -15 -27 -15 -8 0 -27 -6 -41 -13 -27 -14 -83 -39 -112 -51 -8
-3 -28 -15 -45 -26 -16 -11 -37 -23 -45 -26 -8 -4 -23 -13 -32 -21 -9 -8 -27
-13 -39 -11 -22 3 -33 17 -79 103 -12 22 -36 60 -54 85 -17 25 -40 62 -49 83
-10 20 -22 37 -27 37 -18 0 -11 50 8 56 9 3 24 10 32 15 8 5 22 12 30 16 46
21 122 88 135 120 17 41 20 99 5 108 -5 3 -10 14 -10 24 0 52 -142 92 -197 55
-35 -23 -62 -40 -88 -54 -11 -6 -33 -19 -50 -30 -16 -11 -36 -23 -44 -27 -8
-3 -57 -35 -109 -70 -52 -35 -97 -63 -99 -63 -3 0 -22 -13 -43 -30 -21 -16
-43 -30 -50 -30 -7 0 -29 -13 -50 -30 -21 -16 -42 -30 -48 -30 -5 0 -28 -19
-51 -41 -39 -39 -41 -45 -41 -99 0 -54 2 -60 41 -99 40 -39 44 -41 103 -41 65
1 83 9 190 84 55 39 56 39 77 20 12 -10 25 -28 30 -39 11 -25 27 -51 60 -95
14 -19 29 -42 32 -50 4 -8 16 -28 27 -45 11 -16 24 -40 29 -52 5 -11 15 -24
20 -28 22 -13 9 -41 -32 -70 -65 -46 -263 -232 -331 -311 -146 -170 -278 -349
-305 -411 -6 -11 -15 -24 -20 -28 -6 -3 -11 -12 -11 -20 0 -8 -13 -33 -29 -57
-16 -24 -45 -79 -66 -123 -20 -44 -43 -93 -51 -108 -8 -16 -14 -37 -14 -47 0
-9 -7 -23 -15 -30 -8 -7 -15 -25 -15 -40 0 -15 -7 -33 -15 -40 -8 -7 -15 -27
-15 -45 0 -18 -7 -38 -15 -45 -8 -7 -15 -27 -15 -44 0 -17 -6 -42 -13 -57 -8
-14 -17 -49 -20 -77 -3 -29 -10 -58 -14 -65 -7 -11 -13 -45 -43 -247 -15 -101
-10 -681 7 -701 6 -8 14 -51 18 -97 4 -45 11 -85 16 -87 4 -3 11 -31 15 -63 4
-31 13 -66 20 -77 8 -11 14 -33 14 -50 0 -17 7 -40 15 -51 8 -10 15 -31 15
-45 0 -14 7 -34 15 -45 8 -10 15 -28 15 -40 0 -11 7 -29 15 -40 8 -10 15 -27
15 -37 0 -11 6 -31 14 -45 8 -15 40 -79 71 -142 31 -63 65 -128 76 -145 10
-16 23 -39 29 -50 6 -11 19 -33 30 -50 11 -16 23 -37 27 -45 30 -64 274 -350
407 -477 118 -114 381 -313 456 -346 8 -4 29 -16 45 -27 17 -11 37 -22 45 -26
8 -3 22 -9 30 -14 21 -12 158 -78 200 -96 19 -9 52 -24 72 -35 20 -10 46 -19
56 -19 11 0 25 -7 32 -15 7 -8 25 -15 40 -15 15 0 41 -7 56 -15 16 -8 40 -15
54 -15 14 -1 36 -7 50 -15 14 -8 40 -14 58 -15 18 0 45 -6 60 -14 15 -7 56
-16 91 -19 35 -3 68 -10 74 -16 6 -6 43 -11 81 -11 39 0 131 -7 203 -17 125
-16 142 -16 290 0 87 10 183 17 213 17 30 1 66 7 80 15 14 8 48 15 75 15 42 0
57 6 90 34 l40 34 0 76 c0 72 -2 77 -32 108 -32 31 -34 32 -120 30 -48 -1
-110 -6 -138 -12 -136 -31 -542 -33 -677 -4 -37 8 -85 14 -108 14 -23 0 -51 5
-63 12 -12 6 -42 15 -67 19 -25 4 -60 12 -77 18 -84 28 -100 33 -136 41 -21 4
-44 13 -50 19 -6 6 -21 11 -33 11 -12 0 -27 7 -34 15 -7 8 -21 15 -30 15 -10
0 -67 25 -127 55 -285 146 -425 248 -647 469 -130 129 -276 299 -276 321 0 4
-13 24 -29 44 -16 20 -37 52 -48 71 -10 19 -31 54 -46 78 -15 24 -32 53 -37
65 -6 12 -14 29 -19 37 -26 46 -41 80 -41 93 0 8 -7 20 -15 27 -8 7 -15 22
-15 34 0 11 -7 30 -15 40 -8 11 -15 29 -15 41 0 12 -7 30 -15 41 -8 10 -15 26
-15 34 0 8 -6 26 -13 40 -8 15 -17 48 -20 74 -4 27 -11 54 -16 60 -5 6 -12 34
-16 61 -4 28 -10 55 -13 60 -8 12 -28 158 -43 310 -12 124 -5 390 12 449 6 22
15 72 19 110 13 104 30 187 46 223 8 17 14 42 14 55 0 13 7 33 15 44 8 10 15
31 15 45 0 14 7 34 15 45 8 10 15 31 15 45 0 15 7 32 15 39 8 7 15 23 15 35 0
12 7 28 15 35 8 7 15 23 15 35 0 12 7 28 15 35 8 7 15 21 15 31 0 10 4 20 8
23 5 3 25 38 46 78 21 40 45 81 54 91 15 17 34 46 49 77 16 33 126 175 207
267 115 131 194 202 417 372 56 43 183 126 209 136 8 4 22 10 30 15 8 5 35 19
60 30 25 12 52 26 60 31 8 5 22 12 30 15 8 3 28 12 43 20 16 7 33 14 39 14 5
0 24 7 41 15 44 20 117 46 147 52 14 3 39 11 57 19 17 8 42 14 56 14 14 0 38
7 53 15 16 8 48 15 71 15 23 0 54 5 70 11 15 7 73 15 128 19 55 5 144 14 198
21 85 11 112 11 215 -4 64 -9 142 -17 173 -17 31 0 78 -7 105 -15 27 -8 67
-15 90 -15 22 0 49 -7 60 -15 10 -8 35 -15 54 -15 19 0 46 -7 60 -15 14 -8 37
-14 51 -15 14 0 34 -7 45 -15 10 -8 26 -15 34 -15 8 0 33 -9 55 -20 22 -11 45
-19 52 -20 10 0 52 -19 93 -42 8 -4 22 -11 30 -14 30 -11 156 -76 185 -94 17
-11 37 -23 45 -27 62 -29 287 -205 418 -328 66 -61 242 -258 242 -270 0 -4 19
-32 43 -63 49 -65 117 -166 117 -175 0 -3 13 -26 30 -50 16 -25 30 -52 30 -60
0 -8 7 -20 15 -27 8 -7 15 -20 15 -30 0 -10 7 -23 15 -30 8 -7 15 -18 15 -25
0 -8 7 -27 15 -44 8 -17 22 -45 30 -62 8 -17 15 -41 15 -54 0 -12 7 -28 15
-35 8 -7 15 -24 15 -39 0 -15 6 -35 14 -46 7 -11 17 -42 21 -70 4 -27 11 -56
17 -62 5 -7 10 -28 10 -46 0 -48 37 -109 78 -130 26 -14 49 -17 89 -13 64 6
100 35 126 101 15 40 15 46 1 74 -9 16 -16 47 -16 69 0 21 -5 43 -12 50 -6 6
-14 30 -18 54 -9 48 -25 98 -46 141 -8 16 -14 38 -14 50 0 12 -7 31 -15 41 -8
11 -15 30 -15 42 0 12 -7 27 -15 34 -8 7 -15 23 -15 35 0 12 -7 28 -15 35 -8
7 -15 20 -15 30 0 10 -6 23 -14 29 -8 7 -17 24 -21 39 -3 14 -19 44 -34 67
-15 22 -30 47 -34 55 -4 8 -16 29 -27 45 -11 17 -24 39 -30 50 -44 86 -152
228 -294 388 -64 72 -281 270 -328 300 -36 22 -35 50 0 96 16 20 32 43 35 51
4 8 16 29 27 45 11 17 23 37 27 45 12 25 94 139 104 146 6 3 18 -1 28 -10 10
-9 21 -16 25 -16 5 0 25 -13 46 -30 21 -16 42 -30 48 -30 5 0 15 -7 22 -15 21
-25 134 -20 170 7 17 12 30 27 30 34 0 6 7 17 15 24 9 8 15 30 15 60 0 30 -6
52 -15 60 -8 7 -15 18 -15 24 0 12 -40 45 -70 59 -8 4 -28 16 -45 27 -16 11
-37 23 -45 27 -8 3 -31 18 -50 33 -19 15 -42 30 -50 33 -8 4 -27 15 -41 25
-71 47 -107 70 -139 88 -19 10 -51 31 -70 45 -19 14 -42 29 -50 32 -8 4 -28
16 -45 27 -52 34 -78 42 -126 37 -55 -5 -93 -31 -120 -84 -23 -45 -24 -86 -4
-103 8 -7 15 -18 15 -24 0 -18 82 -87 130 -109 42 -20 75 -45 78 -61 2 -9 -8
-32 -22 -51 -14 -18 -26 -37 -26 -40 0 -4 -13 -24 -28 -44 -26 -32 -48 -67
-106 -164 -10 -18 -23 -35 -29 -39 -11 -7 -16 -5 -72 32 -16 11 -40 24 -52 29
-11 5 -24 15 -28 20 -3 6 -17 11 -29 11 -13 0 -29 7 -36 15 -7 8 -20 15 -29
15 -10 0 -26 7 -37 15 -10 8 -29 15 -40 15 -12 0 -27 7 -34 15 -7 8 -22 15
-34 15 -11 0 -30 7 -40 15 -11 8 -27 15 -35 15 -9 0 -28 6 -43 14 -14 8 -45
17 -67 21 -23 4 -43 11 -46 15 -3 5 -27 12 -53 16 -26 3 -53 11 -59 16 -9 7
-13 42 -13 107 -1 57 -7 112 -15 136 -8 22 -15 50 -15 61 0 12 -7 27 -15 34
-8 7 -15 20 -15 30 0 10 -7 23 -15 30 -8 7 -15 21 -15 30 0 22 -183 210 -203
210 -8 0 -20 7 -27 15 -7 8 -20 15 -30 15 -10 0 -23 7 -30 15 -7 8 -25 15 -39
15 -15 0 -36 7 -47 15 -28 21 -302 21 -330 0z m256 -285 c70 -20 175 -106 209
-169 10 -20 23 -67 30 -105 16 -92 8 -102 -74 -87 -79 15 -470 14 -534 -1 -40
-9 -53 -9 -66 2 -19 16 -19 57 0 90 8 14 14 37 15 51 0 15 7 32 15 39 8 7 15
17 15 22 0 20 55 80 102 110 98 64 183 78 288 48z"></path>
<path d="M2950 5549 c-66 -55 -80 -135 -35 -201 14 -20 25 -42 25 -47 0 -7
-58 -11 -170 -11 -117 0 -182 -4 -212 -14 -24 -8 -72 -17 -108 -20 -35 -3 -69
-11 -74 -16 -6 -6 -24 -10 -40 -10 -17 0 -44 -7 -60 -15 -15 -8 -36 -15 -45
-15 -9 0 -33 -9 -54 -20 -20 -11 -45 -20 -56 -20 -10 0 -24 -7 -31 -15 -7 -8
-20 -15 -29 -15 -10 0 -26 -7 -37 -15 -10 -8 -26 -15 -35 -15 -9 0 -22 -7 -29
-15 -7 -8 -19 -15 -28 -15 -8 0 -23 -7 -32 -15 -9 -8 -34 -25 -56 -37 -184
-104 -421 -336 -560 -547 -63 -95 -134 -226 -134 -246 0 -7 -7 -18 -15 -25 -8
-7 -15 -22 -15 -34 0 -11 -7 -30 -15 -40 -8 -11 -15 -29 -15 -41 0 -12 -7 -30
-15 -41 -8 -10 -15 -33 -15 -50 0 -16 -7 -39 -15 -50 -8 -10 -15 -38 -15 -62
0 -24 -6 -55 -13 -70 -22 -43 -40 -358 -28 -472 6 -52 11 -121 11 -152 0 -31
4 -59 9 -63 5 -3 13 -31 17 -62 3 -31 13 -68 20 -82 8 -14 14 -40 14 -57 0
-17 7 -37 15 -44 8 -7 15 -23 15 -35 0 -13 6 -36 14 -52 7 -15 21 -46 31 -68
9 -22 21 -47 26 -55 5 -8 12 -22 15 -30 3 -8 10 -24 16 -34 46 -84 65 -116 89
-147 16 -20 29 -40 29 -44 0 -3 27 -41 59 -83 119 -155 349 -359 486 -432 11
-6 34 -19 50 -30 69 -44 257 -130 284 -130 10 0 26 -7 37 -15 10 -8 29 -15 40
-15 12 0 35 -7 50 -15 16 -8 43 -15 60 -15 17 0 48 -7 67 -15 20 -8 60 -15 89
-15 29 0 98 -7 153 -15 180 -26 244 -17 312 46 32 31 34 136 2 180 -39 56 -68
63 -259 70 -181 7 -286 21 -332 45 -14 8 -37 14 -50 14 -13 0 -33 7 -44 15
-10 8 -27 15 -37 15 -11 0 -31 6 -45 13 -15 8 -45 22 -67 32 -22 9 -47 21 -55
26 -8 5 -26 15 -40 22 -96 47 -301 208 -385 304 -95 107 -199 249 -220 303 -4
8 -11 22 -16 30 -5 8 -12 22 -15 30 -3 8 -10 22 -15 30 -5 8 -12 22 -15 30 -3
8 -12 28 -20 43 -7 16 -14 36 -14 46 0 9 -7 26 -15 37 -8 10 -15 31 -15 46 0
15 -6 42 -14 60 -39 92 -65 391 -47 533 14 110 35 214 49 248 7 16 12 41 12
56 0 16 7 34 15 41 8 7 15 23 15 35 0 13 7 36 15 52 7 15 23 48 35 73 12 25
25 52 30 60 5 8 11 22 14 30 4 8 15 29 26 45 11 17 23 37 27 45 15 35 137 182
217 262 77 78 217 193 256 211 8 4 29 16 45 27 17 11 37 23 45 26 8 3 42 19
75 34 109 51 154 70 168 70 8 0 28 7 43 15 16 8 45 15 65 15 19 0 41 6 47 13
7 6 48 15 90 18 42 4 113 12 158 19 54 8 105 9 155 4 95 -11 99 -26 30 -99
-47 -49 -51 -58 -51 -102 0 -41 5 -54 38 -92 35 -40 43 -44 92 -48 30 -3 66
-1 78 4 13 5 97 82 187 171 157 158 163 164 169 212 8 63 0 96 -35 141 -16 20
-29 41 -29 46 0 5 -13 22 -30 38 -16 16 -30 33 -30 37 0 5 -29 47 -65 93 -36
47 -65 89 -65 94 0 5 -18 23 -39 40 -34 27 -47 31 -97 31 -45 -1 -65 -6 -84
-21z"></path>
<path d="M4034 4881 c-21 -16 -241 -232 -489 -480 -247 -248 -457 -451 -466
-451 -9 0 -22 7 -29 15 -7 8 -21 15 -32 15 -10 0 -30 8 -45 17 -38 25 -288 25
-324 0 -13 -9 -35 -17 -50 -17 -15 0 -32 -7 -39 -15 -7 -8 -17 -15 -22 -15
-21 0 -131 -95 -166 -143 -49 -68 -98 -170 -108 -227 -19 -116 -2 -268 40
-345 l27 -49 -169 -171 c-93 -93 -177 -187 -187 -207 -18 -36 -18 -37 0 -80
10 -24 26 -52 34 -62 19 -23 88 -55 118 -56 37 0 102 52 257 209 160 162 153
158 221 123 51 -26 106 -35 210 -35 126 0 153 6 245 51 56 27 96 58 158 119
47 46 82 90 82 101 0 11 7 25 15 32 8 7 15 22 15 33 0 11 7 28 16 38 13 15 16
45 17 168 0 156 1 153 -50 253 -7 14 -13 28 -13 31 0 2 205 208 456 458 251
250 467 471 480 491 88 137 -73 295 -202 199z m-1149 -1160 c3 -5 18 -12 34
-16 35 -8 131 -99 131 -124 0 -10 7 -24 15 -31 11 -9 15 -33 15 -90 0 -57 -4
-81 -15 -90 -8 -7 -15 -20 -15 -30 0 -23 -71 -93 -121 -119 -31 -16 -58 -21
-122 -21 -86 0 -117 12 -185 74 -71 64 -95 211 -50 298 29 56 100 125 138 133
16 4 32 11 35 16 4 5 35 9 70 9 35 0 66 -4 70 -9z"></path>
<path d="M4965 3595 c-27 -8 -70 -14 -95 -15 -25 0 -57 -6 -71 -14 -14 -7 -47
-16 -73 -20 -25 -4 -58 -14 -74 -22 -15 -7 -35 -14 -45 -14 -9 0 -25 -4 -35
-9 -18 -10 -96 -45 -122 -55 -8 -3 -23 -10 -32 -16 -10 -5 -26 -15 -35 -20
-10 -6 -24 -12 -30 -15 -38 -15 -41 -17 -137 -79 -67 -44 -237 -194 -306 -270
-64 -70 -178 -221 -202 -268 -11 -21 -24 -41 -29 -44 -5 -3 -9 -13 -9 -23 0
-10 -7 -24 -15 -31 -8 -7 -15 -20 -15 -30 0 -10 -7 -23 -15 -30 -8 -7 -15 -23
-15 -35 0 -12 -7 -28 -15 -35 -8 -7 -15 -22 -15 -34 0 -12 -7 -31 -15 -42 -8
-10 -15 -29 -15 -42 0 -13 -7 -36 -15 -51 -8 -16 -17 -48 -20 -72 -4 -24 -10
-53 -15 -64 -42 -100 -42 -600 0 -700 5 -11 11 -39 14 -61 3 -23 13 -54 21
-70 8 -16 15 -40 15 -54 0 -14 7 -34 15 -44 8 -11 15 -30 15 -42 0 -12 7 -27
15 -34 8 -7 15 -23 15 -35 0 -12 7 -28 15 -35 8 -7 15 -20 15 -30 0 -10 7 -23
15 -30 8 -7 15 -20 15 -30 0 -10 7 -23 15 -30 8 -7 15 -16 15 -21 0 -21 133
-201 218 -294 78 -86 285 -265 306 -265 4 0 31 -16 60 -35 29 -19 72 -44 97
-55 24 -11 51 -24 59 -29 55 -30 81 -41 98 -41 11 0 25 -7 32 -15 7 -8 24 -15
39 -15 14 0 35 -7 45 -15 11 -8 34 -15 50 -15 17 -1 42 -7 56 -15 14 -8 44
-14 68 -15 23 0 59 -7 79 -15 52 -22 471 -22 533 0 23 8 66 15 95 15 35 0 57
5 65 15 7 8 29 15 50 15 21 0 43 7 50 15 7 8 25 15 39 15 15 0 36 7 47 15 10
8 25 15 32 15 21 0 191 85 250 125 30 19 56 35 59 35 9 0 135 101 216 173 113
101 279 313 335 429 12 26 27 50 32 53 6 3 10 14 10 24 0 10 7 24 15 31 8 7
15 22 15 34 0 12 7 31 15 42 8 10 15 28 15 39 0 11 6 29 14 40 7 11 16 41 20
67 4 26 11 50 16 53 5 3 12 31 16 63 3 31 12 63 18 71 16 20 15 592 -1 612 -6
8 -14 41 -18 73 -4 32 -14 71 -21 85 -8 14 -14 38 -14 52 0 14 -7 34 -15 45
-8 10 -15 31 -15 45 0 15 -7 32 -15 39 -8 7 -15 18 -15 25 0 12 -18 52 -42 95
-4 8 -10 21 -13 28 -16 41 -23 52 -84 142 -53 77 -140 188 -196 249 -54 59
-198 181 -276 233 -91 61 -99 66 -141 83 -7 3 -26 14 -43 25 -16 11 -37 22
-45 26 -8 3 -28 12 -45 19 -16 8 -42 17 -58 21 -15 3 -30 10 -33 15 -3 5 -15
9 -27 9 -12 0 -35 7 -51 15 -16 8 -47 18 -70 21 -22 4 -46 11 -52 16 -7 5 -43
11 -80 14 -38 4 -88 12 -112 20 -58 19 -348 18 -417 -1z m403 -294 c51 -4 98
-13 104 -19 7 -7 28 -12 48 -12 19 0 48 -7 64 -15 15 -8 37 -15 48 -15 11 0
32 -6 46 -14 15 -8 65 -33 112 -56 102 -50 114 -57 161 -92 20 -16 40 -28 44
-28 3 0 32 -20 64 -44 112 -86 308 -318 350 -413 5 -11 15 -24 20 -28 6 -3 11
-14 11 -24 0 -10 7 -24 15 -31 8 -7 15 -23 15 -35 0 -12 7 -28 15 -35 8 -7 15
-22 15 -34 0 -12 7 -31 15 -42 8 -10 15 -29 15 -41 0 -12 5 -34 12 -50 11 -26
24 -88 49 -228 13 -71 4 -344 -11 -359 -5 -5 -10 -27 -10 -48 0 -21 -9 -64
-20 -95 -11 -32 -20 -66 -20 -78 0 -11 -7 -29 -15 -39 -8 -11 -15 -27 -15 -35
0 -18 -38 -99 -51 -107 -5 -3 -9 -16 -9 -29 0 -13 -5 -27 -11 -30 -5 -4 -14
-17 -20 -28 -29 -67 -139 -208 -239 -307 -123 -122 -217 -191 -347 -255 -29
-15 -55 -30 -58 -36 -4 -5 -16 -9 -29 -9 -12 0 -31 -7 -42 -15 -10 -8 -28 -15
-40 -15 -11 0 -29 -7 -40 -15 -10 -8 -32 -15 -47 -15 -16 0 -43 -6 -60 -14
-63 -29 -398 -57 -435 -37 -10 5 -61 13 -112 17 -52 4 -105 13 -119 21 -14 7
-38 13 -52 13 -14 0 -34 7 -45 15 -10 8 -31 15 -45 15 -15 0 -32 7 -39 15 -7
8 -20 15 -28 15 -14 0 -125 53 -177 84 -76 46 -125 79 -125 85 0 4 -29 29 -65
55 -76 55 -260 264 -288 326 -4 8 -16 29 -27 45 -19 29 -22 34 -34 65 -3 8
-10 22 -15 30 -5 8 -17 33 -26 55 -10 22 -24 53 -31 68 -8 16 -14 37 -14 48 0
11 -6 32 -14 47 -7 15 -17 50 -21 77 -4 28 -12 56 -18 64 -8 9 -13 84 -15 220
-3 184 -2 215 17 285 12 44 21 87 21 97 0 9 7 30 15 45 8 16 15 38 15 50 0 11
7 29 15 40 8 10 15 28 15 38 0 20 56 137 90 191 11 17 23 37 27 45 40 88 257
318 376 399 103 69 115 76 207 121 47 23 97 48 112 56 14 8 39 14 55 14 15 0
37 7 47 15 11 8 34 15 52 15 17 0 45 7 60 15 17 9 59 15 104 16 41 1 89 5 105
10 29 8 74 6 273 -10z"></path>
<path d="M5110 2994 c-14 -7 -36 -24 -49 -38 -21 -22 -24 -35 -23 -96 2 -83
-9 -116 -40 -125 -57 -18 -138 -62 -193 -106 -74 -58 -97 -83 -125 -134 -11
-22 -25 -47 -30 -55 -4 -8 -18 -39 -30 -69 -19 -47 -22 -68 -18 -155 5 -95 14
-131 49 -186 5 -8 14 -26 19 -38 13 -31 117 -134 155 -154 75 -40 123 -60 155
-65 19 -3 41 -10 47 -16 7 -5 50 -13 95 -17 46 -4 101 -13 123 -19 22 -6 56
-11 75 -11 19 0 44 -7 54 -15 11 -8 30 -15 41 -15 12 0 38 -16 58 -35 35 -34
37 -39 37 -104 0 -49 -4 -72 -15 -81 -8 -7 -15 -17 -15 -23 0 -15 -51 -67 -66
-67 -6 0 -17 -7 -24 -15 -7 -8 -27 -17 -46 -21 -19 -3 -37 -10 -40 -15 -7 -12
-211 -12 -219 0 -3 5 -19 12 -35 16 -16 4 -49 17 -72 31 -24 13 -50 27 -58 31
-8 3 -44 32 -80 63 -103 90 -146 106 -208 74 -83 -41 -116 -140 -69 -208 44
-65 218 -205 287 -232 8 -3 29 -11 45 -18 17 -8 49 -19 72 -25 64 -17 73 -32
73 -113 0 -76 14 -104 68 -140 30 -20 117 -25 127 -7 4 5 18 14 31 19 13 5 24
16 24 24 0 7 7 19 15 26 11 9 15 33 15 86 0 72 1 74 28 79 15 4 39 13 54 21
14 8 38 14 51 14 14 0 28 4 31 9 4 5 27 19 54 32 26 12 67 40 92 62 48 42 130
145 130 164 0 6 6 24 14 40 26 52 36 99 36 166 0 130 -41 234 -124 315 -57 56
-152 112 -189 112 -14 0 -30 7 -37 15 -8 9 -30 15 -59 15 -25 1 -57 7 -71 15
-15 8 -54 15 -95 15 -38 1 -88 7 -110 15 -22 8 -48 15 -57 15 -45 0 -132 67
-165 127 -29 52 -7 128 58 198 60 65 131 92 249 95 39 1 131 -17 142 -28 7 -7
18 -12 25 -12 16 0 60 -30 127 -86 43 -38 52 -41 90 -37 70 8 136 49 136 84 0
10 5 21 10 24 16 10 12 58 -9 101 -26 54 -210 194 -256 194 -11 0 -29 7 -39
15 -11 8 -34 15 -51 15 -49 0 -65 25 -65 104 0 57 -4 73 -26 101 -46 61 -124
82 -184 49z"></path>
</g>
</svg>