 <svg version="1.0" xmlns="http://www.w3.org/2000/svg" width="700.000000pt" height="700.000000pt" viewBox="0 0 700.000000 700.000000" preserveAspectRatio="xMidYMid meet">
<metadata>
Created by potrace 1.12, written by Peter Selinger 2001-2015
</metadata>
<g transform="translate(0.000000,700.000000) scale(0.100000,-0.100000)" fill="#fff" stroke="none">
<path d="M3410 6979 c-20 -15 -53 -21 -160 -30 -85 -6 -155 -18 -189 -30 -30
-11 -82 -22 -115 -26 -35 -3 -78 -15 -101 -28 -22 -12 -63 -24 -91 -27 -29 -3
-63 -14 -80 -26 -16 -12 -51 -26 -79 -32 -27 -6 -57 -18 -67 -26 -9 -9 -36
-20 -59 -25 -23 -5 -53 -18 -66 -29 -13 -10 -38 -22 -56 -26 -18 -3 -45 -17
-60 -30 -16 -13 -35 -24 -42 -24 -7 0 -26 -11 -42 -24 -15 -13 -44 -28 -64
-35 -20 -6 -45 -21 -54 -31 -10 -11 -24 -20 -30 -20 -7 0 -18 -7 -26 -16 -7
-8 -31 -25 -53 -36 -23 -11 -66 -41 -98 -67 -31 -25 -83 -66 -117 -90 -86 -61
-363 -332 -441 -431 -36 -45 -91 -113 -122 -152 -32 -38 -58 -74 -58 -79 0
-13 -62 -102 -81 -116 -9 -7 -20 -25 -24 -40 -3 -16 -12 -35 -20 -43 -13 -16
-37 -59 -79 -147 -14 -28 -30 -54 -35 -58 -6 -3 -17 -29 -26 -57 -8 -28 -22
-59 -31 -69 -9 -10 -20 -37 -25 -60 -6 -23 -18 -54 -29 -68 -10 -15 -21 -45
-25 -66 -4 -22 -18 -59 -31 -82 -14 -24 -24 -58 -24 -80 0 -21 -11 -62 -25
-90 -14 -32 -28 -86 -34 -140 -5 -49 -19 -109 -30 -134 -18 -41 -21 -69 -23
-239 -2 -179 -1 -194 16 -204 10 -6 32 -24 48 -39 l29 -28 563 3 563 3 29 27
c16 15 37 33 46 40 12 9 19 40 26 108 6 55 19 114 31 140 11 25 21 66 21 91 0
29 9 63 23 90 13 24 27 62 31 83 4 22 18 55 32 75 13 20 24 46 24 58 0 12 11
34 24 50 13 15 26 42 30 59 4 17 18 42 32 54 13 13 24 28 24 34 1 42 223 305
345 407 38 33 79 68 90 78 11 10 42 31 68 47 27 16 63 41 80 55 18 15 43 30
57 34 14 4 38 18 53 31 16 13 39 24 51 24 12 0 37 11 56 25 19 14 43 25 54 25
12 0 48 14 81 30 33 16 76 30 95 30 19 0 53 10 75 21 33 18 66 23 190 30 83 5
167 14 188 21 29 9 56 9 115 -1 42 -6 138 -15 213 -20 99 -6 142 -13 161 -25
14 -9 53 -21 87 -27 33 -5 82 -21 107 -34 26 -14 57 -25 70 -25 12 0 36 -11
52 -25 17 -14 39 -25 50 -25 11 0 33 -11 49 -24 15 -13 44 -28 64 -35 20 -6
45 -21 54 -31 10 -11 23 -20 28 -20 6 0 20 -9 31 -19 12 -11 47 -37 78 -58
116 -78 293 -260 388 -397 14 -20 37 -53 53 -73 15 -20 27 -41 27 -47 0 -7 13
-30 29 -52 16 -21 32 -53 35 -70 4 -18 15 -39 26 -49 10 -9 21 -36 24 -59 4
-24 15 -51 26 -61 11 -10 22 -38 26 -64 3 -25 17 -72 30 -103 14 -34 24 -78
24 -106 0 -26 10 -84 22 -128 30 -107 33 -403 5 -473 -9 -24 -20 -83 -23 -130
-4 -59 -14 -102 -30 -138 -13 -28 -24 -62 -24 -75 0 -13 -14 -50 -30 -83 -16
-33 -30 -68 -30 -78 0 -10 -11 -35 -25 -55 -14 -20 -25 -44 -25 -53 0 -8 -11
-26 -24 -38 -13 -12 -26 -35 -30 -51 -3 -16 -14 -38 -25 -49 -11 -11 -25 -30
-32 -43 -70 -132 -378 -440 -509 -508 -14 -7 -38 -24 -53 -36 -16 -13 -36 -24
-46 -24 -10 0 -26 -9 -36 -20 -10 -11 -36 -25 -59 -31 -22 -6 -53 -22 -69 -35
-16 -13 -41 -24 -56 -24 -16 0 -40 -9 -55 -21 -15 -12 -51 -24 -85 -29 -32 -4
-76 -17 -97 -28 -24 -12 -72 -22 -124 -27 -93 -8 -129 -23 -192 -84 l-38 -35
0 -566 c0 -637 -7 -576 83 -644 51 -39 80 -43 152 -26 81 21 201 40 247 40 25
0 68 9 94 20 26 12 80 25 119 30 39 5 95 20 125 34 30 14 69 26 85 26 17 0 46
10 65 22 19 11 54 25 76 29 23 4 58 19 79 33 21 15 48 26 59 26 12 0 37 11 55
24 18 13 47 27 66 30 18 4 39 14 46 22 7 9 36 27 64 40 27 13 68 35 90 49 22
13 59 34 82 45 24 11 47 30 53 40 6 11 15 20 21 20 17 0 138 83 195 135 19 17
66 55 106 85 79 61 244 224 325 322 29 35 73 88 99 118 25 30 70 92 100 137
30 45 59 85 65 88 5 4 16 21 24 38 8 18 35 64 59 102 25 39 45 77 46 86 0 8
11 26 24 38 13 12 26 39 30 60 3 21 15 46 26 56 11 10 22 34 26 54 3 20 17 52
29 71 13 19 26 50 30 69 4 19 18 54 31 79 13 25 24 59 24 76 0 17 9 46 21 65
11 19 27 69 34 112 8 43 21 93 31 111 10 20 20 71 24 133 5 63 14 115 26 140
17 36 19 75 22 424 3 366 2 387 -18 453 -11 38 -25 113 -29 167 -6 65 -16 111
-29 138 -11 22 -24 68 -28 102 -4 35 -17 83 -30 108 -13 24 -24 61 -24 81 0
23 -9 51 -25 75 -14 20 -29 57 -34 82 -5 25 -16 54 -25 64 -9 10 -22 36 -28
57 -5 21 -21 54 -34 73 -13 20 -24 43 -24 52 0 9 -8 27 -19 40 -10 13 -28 44
-40 69 -11 25 -34 65 -51 90 -16 25 -39 61 -50 80 -11 19 -36 55 -55 80 -19
25 -41 56 -47 70 -17 34 -213 266 -312 368 -86 89 -390 352 -407 352 -5 0 -38
22 -73 49 -35 28 -79 56 -98 64 -18 8 -39 21 -47 30 -7 10 -19 17 -26 17 -6 0
-32 13 -56 30 -24 16 -50 30 -57 30 -7 0 -28 11 -45 24 -18 13 -45 27 -62 30
-16 4 -39 16 -51 27 -12 11 -39 22 -60 26 -21 3 -52 16 -69 28 -16 12 -48 25
-70 28 -21 4 -51 15 -66 26 -14 11 -48 22 -75 26 -27 4 -71 17 -99 30 -27 12
-76 25 -108 29 -31 3 -76 13 -100 22 -23 9 -104 22 -180 29 -113 10 -144 17
-167 34 -28 20 -39 21 -332 20 -284 0 -305 -1 -328 -20z m595 -335 c39 -8 129
-22 200 -29 92 -9 142 -19 170 -34 22 -12 58 -21 83 -21 23 0 60 -9 82 -20 22
-11 63 -25 91 -31 29 -6 73 -22 97 -35 25 -13 55 -24 68 -24 12 0 35 -11 51
-24 15 -13 44 -26 64 -30 20 -3 46 -17 59 -31 14 -15 35 -25 50 -25 15 0 40
-10 55 -22 27 -21 81 -52 140 -82 17 -8 39 -24 49 -35 11 -12 25 -21 31 -21
12 0 70 -41 110 -77 11 -10 50 -41 88 -69 154 -117 303 -263 413 -406 35 -46
72 -92 82 -103 17 -18 43 -54 98 -139 10 -16 36 -54 56 -85 21 -31 38 -61 38
-68 0 -6 11 -24 24 -40 13 -15 27 -39 31 -53 4 -14 18 -41 31 -60 13 -19 24
-44 24 -55 0 -12 11 -36 25 -55 14 -19 25 -41 25 -49 0 -9 14 -43 30 -76 16
-33 30 -73 30 -90 0 -16 12 -48 25 -70 16 -25 25 -55 25 -80 0 -22 12 -65 26
-95 19 -40 28 -82 34 -155 5 -55 16 -120 26 -145 16 -40 18 -81 19 -370 0
-289 -2 -331 -18 -380 -10 -30 -22 -98 -27 -151 -5 -62 -15 -113 -29 -145 -12
-27 -26 -77 -30 -111 -4 -38 -15 -70 -26 -83 -10 -11 -22 -45 -26 -75 -4 -30
-16 -67 -27 -82 -11 -15 -24 -45 -30 -65 -6 -21 -20 -50 -31 -64 -12 -15 -21
-39 -21 -55 0 -15 -11 -40 -24 -56 -14 -16 -28 -41 -31 -56 -4 -14 -14 -32
-22 -39 -8 -7 -26 -35 -39 -63 -33 -67 -47 -92 -71 -118 -11 -12 -28 -38 -37
-57 -9 -19 -49 -74 -89 -122 -39 -48 -88 -108 -107 -134 -93 -127 -478 -469
-572 -509 -19 -7 -42 -23 -52 -34 -11 -12 -23 -21 -28 -21 -5 0 -24 -11 -42
-25 -18 -14 -40 -25 -49 -25 -8 0 -29 -11 -45 -25 -17 -14 -44 -28 -60 -31
-17 -3 -41 -17 -53 -30 -12 -13 -32 -24 -43 -24 -12 0 -37 -11 -56 -24 -19
-13 -54 -27 -77 -31 -23 -3 -54 -15 -67 -26 -14 -11 -49 -24 -79 -29 -29 -4
-68 -17 -87 -29 -19 -11 -60 -23 -90 -27 -30 -3 -75 -15 -100 -26 -61 -27
-181 -36 -198 -16 -9 12 -12 90 -10 324 l3 309 58 27 c31 15 83 31 115 34 31
4 75 16 97 29 22 12 57 25 78 29 21 4 54 18 74 32 20 13 48 24 63 24 15 0 36
10 49 24 12 13 36 27 54 30 17 3 40 14 52 24 11 10 49 36 85 57 60 36 130 86
165 117 8 7 33 27 56 43 64 45 259 244 309 315 25 34 57 77 71 94 14 17 43 60
64 96 22 36 47 74 56 85 9 11 20 31 24 44 4 12 18 39 31 58 13 20 24 42 24 50
0 8 11 33 24 56 13 23 26 57 30 75 3 19 15 47 27 64 12 16 24 51 26 76 2 26
15 70 28 97 16 34 25 78 30 135 3 47 15 119 26 162 28 112 28 421 -1 532 -11
43 -24 117 -28 166 -6 53 -16 100 -26 115 -9 14 -20 49 -23 78 -3 29 -19 76
-34 106 -16 30 -29 66 -29 80 0 15 -11 42 -25 61 -14 19 -25 41 -25 51 0 9
-11 33 -25 53 -14 20 -28 49 -31 64 -4 15 -19 41 -33 59 -14 17 -39 53 -56 80
-27 45 -79 115 -164 223 -60 75 -149 164 -232 231 -44 35 -108 87 -142 115
-34 27 -77 56 -94 63 -18 8 -33 17 -33 22 0 5 -12 15 -27 21 -16 7 -42 23 -59
35 -17 13 -38 23 -46 23 -8 0 -31 11 -51 24 -20 14 -53 29 -73 35 -20 5 -45
18 -55 27 -10 9 -40 20 -66 25 -26 5 -61 19 -77 30 -18 14 -49 23 -90 26 -33
3 -79 15 -101 26 -27 14 -70 23 -135 28 -52 4 -157 12 -232 19 -106 9 -169 9
-270 0 -73 -6 -176 -15 -228 -19 -63 -5 -110 -15 -140 -29 -25 -12 -63 -22
-85 -22 -23 0 -60 -10 -87 -25 -25 -13 -67 -29 -93 -35 -26 -6 -59 -20 -73
-30 -13 -11 -39 -20 -57 -20 -21 0 -39 -8 -55 -25 -13 -14 -38 -27 -56 -31
-18 -3 -42 -17 -55 -30 -12 -13 -28 -24 -34 -24 -7 0 -29 -13 -50 -30 -21 -16
-43 -30 -50 -30 -7 0 -19 -7 -26 -16 -8 -9 -31 -28 -53 -43 -21 -14 -49 -33
-61 -41 -95 -65 -425 -417 -425 -454 0 -7 -7 -19 -16 -27 -21 -17 -79 -107
-96 -149 -8 -19 -22 -41 -31 -49 -10 -7 -17 -19 -17 -26 0 -7 -13 -36 -29 -66
-15 -30 -31 -67 -35 -83 -4 -17 -16 -41 -26 -56 -10 -14 -21 -48 -25 -75 -4
-28 -18 -68 -31 -91 -15 -26 -24 -57 -24 -85 0 -66 -18 -117 -47 -136 -22 -15
-59 -17 -326 -14 -197 1 -306 6 -314 13 -19 15 -16 59 6 109 11 24 23 78 27
119 4 48 15 91 30 120 14 25 24 62 24 84 0 23 10 56 24 80 13 23 27 60 31 83
4 23 15 53 25 66 11 13 24 43 29 67 5 23 18 52 29 63 11 12 23 36 26 53 4 17
18 46 32 65 13 18 24 38 24 45 0 7 11 26 25 42 14 17 25 34 25 38 0 5 14 27
30 48 17 22 30 45 30 52 0 7 21 39 48 71 26 32 62 81 81 108 47 68 78 104 185
215 171 176 238 235 431 377 65 48 149 103 158 103 5 0 22 11 39 25 16 14 37
25 47 25 10 0 26 9 36 20 9 10 34 24 54 31 20 6 45 20 57 31 12 10 39 22 60
25 21 3 52 17 67 30 16 12 38 23 50 23 12 0 49 14 82 30 33 16 73 30 89 30 16
0 48 11 70 24 27 15 63 25 106 28 38 3 83 14 106 26 30 15 69 23 145 27 57 4
118 11 134 17 86 30 475 38 590 12z"></path>
<path d="M3653 5432 c-81 -71 -93 -96 -93 -187 0 -80 -9 -105 -37 -105 -7 0
-30 -11 -51 -24 -20 -14 -50 -28 -67 -32 -91 -22 -345 -294 -345 -370 0 -11
-12 -44 -26 -74 -25 -53 -26 -63 -26 -230 -1 -170 0 -177 26 -227 14 -29 26
-61 26 -71 0 -16 37 -80 92 -160 50 -73 127 -141 201 -178 17 -9 41 -24 52
-34 11 -10 38 -21 59 -24 23 -5 51 -19 68 -36 l28 -28 0 -371 c0 -367 0 -370
-21 -382 -18 -9 -26 -7 -48 10 -14 11 -39 28 -56 37 -37 21 -135 104 -241 206
l-82 78 -70 0 -69 0 -42 -45 c-40 -44 -41 -46 -41 -119 0 -72 1 -76 38 -119
69 -79 250 -245 290 -266 15 -7 34 -20 43 -28 22 -18 95 -57 214 -114 39 -18
73 -38 77 -44 4 -5 8 -49 8 -96 l0 -86 58 -61 c57 -62 58 -62 113 -62 49 0 62
4 100 35 53 42 57 52 58 141 1 94 14 130 53 143 17 6 38 11 46 11 8 0 27 11
44 25 16 14 36 25 45 25 49 0 254 183 294 263 12 23 30 53 39 67 10 14 21 45
24 70 4 24 17 60 29 80 20 32 22 48 22 185 0 135 -2 154 -22 192 -12 23 -25
59 -29 80 -28 148 -294 413 -438 436 -25 4 -51 18 -73 39 l-33 32 0 367 c0
424 -4 406 81 384 28 -8 68 -25 88 -38 20 -14 46 -28 59 -32 12 -3 22 -10 22
-14 0 -5 17 -20 38 -34 20 -14 53 -40 72 -58 136 -128 201 -137 297 -38 43 45
49 63 45 140 -2 29 -14 47 -64 100 -35 35 -74 72 -88 82 -14 9 -45 33 -70 52
-25 19 -58 42 -73 50 -15 9 -37 25 -48 36 -10 10 -27 19 -36 19 -9 0 -34 12
-54 26 -21 14 -56 30 -79 35 -23 5 -53 18 -68 28 -15 11 -44 22 -64 25 -49 9
-58 28 -58 123 0 43 -3 88 -6 100 -3 12 -30 40 -60 63 -71 54 -112 54 -171 2z
m-109 -678 c14 -5 16 -45 16 -344 0 -409 4 -398 -101 -294 -38 37 -69 75 -69
84 0 8 -11 33 -25 55 -22 36 -24 51 -25 155 0 77 5 123 13 140 36 67 59 103
78 123 12 12 32 37 46 55 26 32 38 37 67 26z m480 -1219 c41 -41 69 -78 75
-100 5 -19 19 -47 30 -61 18 -23 21 -40 21 -126 0 -83 -4 -106 -24 -146 -12
-26 -27 -57 -32 -69 -11 -26 -97 -118 -123 -133 -30 -16 -59 -12 -71 9 -15 29
-14 663 2 679 26 26 57 12 122 -53z"></path>
<path d="M673 3680 c-75 -48 -77 -54 -71 -248 3 -101 9 -148 22 -177 9 -22 22
-78 28 -125 5 -47 18 -101 29 -121 10 -20 22 -63 28 -96 5 -32 18 -74 29 -93
11 -19 22 -54 26 -77 3 -23 17 -59 31 -79 14 -20 25 -49 25 -63 0 -15 11 -42
24 -60 14 -19 28 -48 32 -65 4 -17 17 -44 30 -59 13 -16 24 -36 24 -46 0 -9 6
-26 14 -37 14 -19 42 -68 86 -151 10 -17 28 -45 41 -62 13 -16 35 -48 49 -72
14 -23 51 -73 83 -111 31 -39 57 -73 57 -78 0 -18 125 -157 263 -293 171 -167
172 -168 260 -232 38 -28 87 -65 110 -82 23 -18 58 -41 78 -52 19 -11 41 -27
48 -35 8 -9 19 -16 25 -16 7 0 22 -11 35 -24 12 -12 39 -28 60 -34 21 -7 46
-21 56 -32 10 -11 26 -20 36 -20 10 0 30 -11 46 -24 15 -13 46 -29 67 -34 21
-6 48 -20 60 -30 12 -11 39 -22 60 -25 21 -4 48 -15 60 -26 12 -11 39 -22 61
-26 22 -4 59 -18 82 -31 23 -13 57 -24 75 -24 18 0 54 -11 79 -25 27 -14 77
-28 120 -34 41 -5 92 -19 114 -30 28 -15 58 -21 105 -21 84 0 189 -17 217 -36
31 -20 49 -18 91 11 20 14 44 25 54 25 19 0 28 11 45 59 18 52 20 1080 3 1139
-9 29 -27 53 -56 77 -38 31 -52 36 -126 44 -49 6 -99 18 -123 30 -21 12 -55
21 -74 21 -19 0 -53 11 -75 24 -23 13 -57 26 -77 30 -19 3 -51 17 -69 31 -19
14 -42 25 -51 25 -10 0 -31 11 -47 25 -17 14 -36 25 -45 25 -8 0 -31 14 -52
30 -21 17 -41 30 -45 30 -7 0 -72 48 -100 73 -8 8 -49 44 -92 79 -128 109
-292 299 -343 398 -10 19 -28 48 -41 63 -13 16 -24 36 -24 44 0 9 -11 30 -23
47 -13 17 -27 44 -31 60 -4 17 -16 41 -26 56 -10 14 -22 44 -26 65 -3 22 -17
61 -30 87 -14 27 -24 66 -24 90 0 24 -9 61 -18 83 -10 22 -24 75 -32 117 l-13
78 -53 29 c-29 17 -55 35 -59 40 -4 7 -191 10 -533 11 l-527 0 -62 -40z m937
-318 c16 -13 23 -34 29 -82 5 -36 18 -81 29 -100 11 -19 23 -55 26 -79 4 -24
15 -56 26 -71 11 -15 24 -46 29 -69 5 -24 18 -53 29 -64 11 -12 23 -36 27 -54
3 -17 13 -37 22 -45 9 -7 24 -31 34 -53 30 -64 138 -223 197 -290 69 -78 150
-161 238 -243 49 -46 101 -94 115 -108 14 -13 30 -24 36 -24 6 0 26 -12 46
-27 35 -28 79 -56 126 -82 15 -7 35 -21 46 -31 11 -9 35 -22 53 -28 18 -6 45
-20 59 -32 14 -11 35 -20 47 -20 11 0 41 -14 65 -30 24 -17 57 -30 73 -30 16
0 48 -11 71 -24 25 -14 66 -26 102 -29 53 -5 64 -10 91 -42 l32 -36 -2 -300
c-1 -285 -2 -301 -20 -315 -28 -20 -62 -17 -131 11 -33 14 -85 28 -115 32 -30
3 -75 17 -99 30 -24 12 -58 23 -75 23 -17 0 -48 11 -68 25 -20 14 -48 25 -61
25 -13 0 -49 14 -80 30 -31 17 -62 30 -68 30 -7 0 -26 11 -43 23 -17 13 -44
27 -60 31 -16 4 -43 18 -59 32 -16 13 -35 24 -42 24 -7 0 -26 11 -42 24 -16
14 -41 28 -55 31 -14 4 -36 18 -49 31 -12 13 -28 24 -35 24 -6 0 -19 11 -28
25 -9 14 -22 25 -30 25 -20 0 -105 66 -225 175 -172 155 -395 405 -447 500
-10 17 -25 36 -35 43 -11 7 -19 17 -19 22 0 9 -44 85 -87 151 -13 19 -23 42
-23 50 0 9 -11 26 -25 39 -14 13 -28 39 -31 59 -4 20 -17 49 -30 64 -13 16
-24 38 -24 50 0 12 -11 38 -24 57 -13 19 -27 55 -31 80 -4 25 -18 63 -31 86
-15 25 -24 57 -24 83 0 27 -8 55 -24 79 -18 27 -25 57 -30 114 -3 42 -13 92
-22 112 -16 32 -16 36 0 60 l16 26 304 0 c275 0 306 -2 326 -18z"></path>
<path d="M200 3174 c-8 -4 -32 -23 -52 -42 -38 -36 -38 -36 -38 -117 l0 -80
45 -47 44 -48 74 0 74 0 47 50 46 49 0 75 c0 74 0 75 -42 118 -40 42 -43 43
-112 45 -39 1 -78 0 -86 -3z"></path>
<path d="M318 2505 c-25 -14 -68 -102 -68 -140 0 -50 28 -109 67 -146 38 -35
48 -39 90 -38 90 2 103 9 150 77 24 35 43 74 43 87 0 32 -72 147 -101 162 -33
17 -148 16 -181 -2z"></path>
<path d="M585 1876 c-39 -40 -40 -43 -43 -122 l-4 -82 46 -46 47 -46 82 0 82
0 41 48 c35 41 41 54 43 100 2 50 -1 58 -41 109 -58 76 -73 84 -150 82 -61 -2
-66 -4 -103 -43z"></path>
<path d="M984 1333 c-43 -47 -54 -72 -54 -128 0 -37 6 -51 42 -92 61 -71 71
-75 151 -75 69 1 73 2 104 36 43 46 55 93 42 165 -9 46 -18 63 -51 94 -39 36
-41 37 -119 37 -79 0 -80 0 -115 -37z"></path>
<path d="M1512 905 c-16 -13 -40 -48 -52 -77 -22 -52 -22 -53 -5 -105 11 -30
33 -66 55 -88 l37 -36 89 3 88 3 38 54 c62 88 50 145 -51 239 -32 30 -40 32
-102 32 -57 0 -72 -4 -97 -25z"></path>
<path d="M2078 548 c-77 -84 -73 -137 14 -230 l44 -48 79 0 c75 0 79 1 109 34
17 18 42 55 55 81 20 38 22 50 13 63 -7 10 -21 35 -31 57 -11 22 -35 52 -54
68 -32 24 -45 27 -108 27 l-72 0 -49 -52z"></path>
<path d="M2782 391 c-18 -5 -48 -26 -67 -47 -31 -35 -34 -45 -35 -101 0 -55 3
-66 30 -97 41 -46 111 -86 152 -86 18 0 47 9 63 21 17 11 40 24 52 29 28 11
57 106 47 156 -8 46 -43 96 -77 112 -35 17 -122 24 -165 13z"></path>
<path d="M3419 318 c-35 -29 -79 -115 -79 -155 0 -36 6 -46 55 -91 30 -28 55
-56 55 -62 0 -6 29 -10 69 -10 61 0 70 3 76 20 4 11 19 27 35 35 21 11 33 28
41 58 7 23 16 46 20 50 4 5 1 21 -7 35 -8 15 -14 33 -14 39 0 7 -16 31 -36 53
l-36 40 -82 0 c-51 0 -88 -5 -97 -12z"></path>
</g>
</svg>