 <svg version="1.0" xmlns="http://www.w3.org/2000/svg" width="700.000000pt" height="737.000000pt" viewBox="0 0 700.000000 737.000000" preserveAspectRatio="xMidYMid meet">
<metadata>
Created by potrace 1.12, written by Peter Selinger 2001-2015
</metadata>
<g transform="translate(0.000000,737.000000) scale(0.100000,-0.100000)" fill="#fff" stroke="none">
<path d="M3337 6841 c-119 -12 -55 -21 171 -24 127 -1 232 1 232 4 0 4 -10 10
-22 13 -32 9 -311 14 -381 7z"></path>
<path d="M3840 6780 c0 -5 5 -10 11 -10 5 0 7 5 4 10 -3 6 -8 10 -11 10 -2 0
-4 -4 -4 -10z"></path>
<path d="M4045 6658 c22 -18 61 -53 88 -77 26 -24 47 -40 47 -35 0 17 -15 31
-80 81 -78 59 -111 78 -55 31z"></path>
<path d="M2934 6651 c-46 -33 -120 -109 -113 -115 2 -2 39 29 81 70 43 41 76
74 74 74 -2 0 -21 -13 -42 -29z"></path>
<path d="M3660 6640 c0 -5 7 -10 15 -10 8 0 15 5 15 10 0 6 -7 10 -15 10 -8 0
-15 -4 -15 -10z"></path>
<path d="M3764 6605 c22 -17 36 -19 36 -6 0 10 -24 21 -43 21 -7 0 -3 -7 7
-15z"></path>
<path d="M3095 6540 c-3 -6 1 -7 9 -4 18 7 21 14 7 14 -6 0 -13 -4 -16 -10z"></path>
<path d="M3905 6530 c3 -5 13 -10 21 -10 8 0 12 5 9 10 -3 6 -13 10 -21 10 -8
0 -12 -4 -9 -10z"></path>
<path d="M2776 6486 c-23 -36 -20 -44 5 -12 12 15 19 29 16 32 -2 2 -12 -7
-21 -20z"></path>
<path d="M3035 6500 c-3 -5 -2 -10 4 -10 5 0 13 5 16 10 3 6 2 10 -4 10 -5 0
-13 -4 -16 -10z"></path>
<path d="M4210 6505 c1 -17 49 -70 57 -62 4 4 -7 22 -25 40 -18 17 -32 27 -32
22z"></path>
<path d="M3960 6497 c0 -1 34 -36 75 -77 93 -92 100 -83 8 11 -56 58 -83 80
-83 66z"></path>
<path d="M2708 6392 c-25 -31 -36 -62 -24 -62 5 0 57 92 54 95 -2 2 -15 -13
-30 -33z"></path>
<path d="M2935 6400 c-16 -16 -26 -32 -24 -35 3 -3 18 9 34 25 16 16 26 32 24
35 -3 3 -18 -9 -34 -25z"></path>
<path d="M4280 6408 c0 -9 9 -26 19 -40 11 -13 23 -37 26 -51 8 -31 25 -36 25
-9 0 11 -9 27 -20 37 -11 10 -20 26 -20 35 0 10 -7 23 -15 30 -12 10 -15 10
-15 -2z"></path>
<path d="M2886 6333 c-6 -14 -5 -15 5 -6 7 7 10 15 7 18 -3 3 -9 -2 -12 -12z"></path>
<path d="M2657 6294 c-4 -4 -7 -14 -7 -23 0 -11 3 -12 11 -4 6 6 10 16 7 23
-2 6 -7 8 -11 4z"></path>
<path d="M4366 6193 c8 -33 12 -39 20 -30 9 9 -5 57 -16 57 -6 0 -8 -11 -4
-27z"></path>
<path d="M2620 6200 c0 -5 5 -10 10 -10 6 0 10 5 10 10 0 6 -4 10 -10 10 -5 0
-10 -4 -10 -10z"></path>
<path d="M2607 6128 c-8 -55 8 -54 19 0 4 19 2 32 -4 32 -5 0 -12 -15 -15 -32z"></path>
<path d="M3174 6047 c-2 -7 -3 -87 -2 -177 l3 -165 48 -3 c28 -2 47 1 47 7 0
6 -13 11 -29 11 -48 0 -52 15 -49 171 l3 144 303 3 c297 2 304 2 309 -18 3
-11 9 -20 13 -20 12 0 23 38 15 50 -10 16 -654 13 -661 -3z"></path>
<path d="M3810 5841 c0 -57 -4 -103 -10 -106 -13 -8 -3 -25 16 -25 11 0 14 22
14 115 0 70 -4 115 -10 115 -6 0 -10 -40 -10 -99z"></path>
<path d="M4400 5810 c0 -5 5 -10 10 -10 6 0 10 5 10 10 0 6 -4 10 -10 10 -5 0
-10 -4 -10 -10z"></path>
<path d="M4210 5775 c0 -8 5 -15 10 -15 6 0 10 7 10 15 0 8 -4 15 -10 15 -5 0
-10 -7 -10 -15z"></path>
<path d="M4370 5688 c0 -13 -3 -34 -6 -48 -5 -24 -5 -24 10 -6 18 22 22 76 6
76 -5 0 -10 -10 -10 -22z"></path>
<path d="M5048 5619 c-10 -5 -18 -17 -18 -26 0 -13 3 -13 15 -3 9 8 27 10 47
6 31 -6 31 -6 13 14 -20 22 -32 24 -57 9z"></path>
<path d="M3320 5600 c0 -5 5 -10 10 -10 6 0 10 5 10 10 0 6 -4 10 -10 10 -5 0
-10 -4 -10 -10z"></path>
<path d="M4147 5594 c-4 -4 -7 -14 -7 -23 0 -11 3 -12 11 -4 6 6 10 16 7 23
-2 6 -7 8 -11 4z"></path>
<path d="M2650 5576 c0 -8 5 -18 10 -21 6 -3 10 1 10 9 0 8 -4 18 -10 21 -5 3
-10 -1 -10 -9z"></path>
<path d="M4310 5514 c-19 -41 -41 -80 -47 -86 -7 -6 -13 -16 -13 -22 0 -15 47
46 75 97 28 54 39 87 28 87 -4 0 -24 -34 -43 -76z"></path>
<path d="M5150 5557 c9 -7 68 -56 132 -109 118 -100 173 -134 83 -53 -71 64
-211 175 -221 175 -5 0 -2 -6 6 -13z"></path>
<path d="M4970 5525 c-18 -19 -31 -37 -29 -40 3 -2 21 11 39 30 18 19 31 37
29 40 -3 2 -21 -11 -39 -30z"></path>
<path d="M3670 5535 c0 -8 5 -15 10 -15 6 0 10 7 10 15 0 8 -4 15 -10 15 -5 0
-10 -7 -10 -15z"></path>
<path d="M4052 5453 c-65 -76 -73 -101 -11 -35 39 40 83 102 78 106 -2 1 -32
-31 -67 -71z"></path>
<path d="M2890 5515 c0 -12 77 -108 92 -114 16 -5 -7 29 -51 79 -22 25 -40 40
-41 35z"></path>
<path d="M4907 5453 c-4 -3 -7 -11 -7 -17 0 -6 5 -5 12 2 6 6 9 14 7 17 -3 3
-9 2 -12 -2z"></path>
<path d="M2730 5421 c0 -5 7 -14 15 -21 16 -14 18 -10 9 14 -6 17 -24 22 -24
7z"></path>
<path d="M4858 5399 c-10 -5 -18 -16 -18 -23 0 -19 37 -62 46 -54 4 4 1 14 -6
23 -7 8 -10 25 -6 40 7 28 7 28 -16 14z"></path>
<path d="M5504 5267 c35 -30 39 -37 33 -66 -6 -29 -5 -32 8 -21 8 7 15 20 15
29 0 18 -69 91 -85 91 -6 0 8 -15 29 -33z"></path>
<path d="M2651 5239 c-13 -5 -22 -12 -19 -15 8 -8 58 7 58 17 0 11 -8 11 -39
-2z"></path>
<path d="M4920 5235 c0 -7 -6 -18 -14 -22 -20 -11 -89 -103 -83 -109 6 -6 117
125 117 138 0 4 -4 8 -10 8 -5 0 -10 -7 -10 -15z"></path>
<path d="M2539 5190 l-24 -19 38 11 c20 6 37 15 37 20 0 14 -27 9 -51 -12z"></path>
<path d="M4420 5201 c0 -9 41 -23 48 -16 2 2 1 8 -3 14 -8 13 -45 15 -45 2z"></path>
<path d="M2468 5163 c-10 -2 -18 -9 -18 -14 0 -11 39 -2 55 12 9 9 -6 10 -37
2z"></path>
<path d="M4510 5160 c0 -5 9 -10 21 -10 11 0 17 5 14 10 -3 6 -13 10 -21 10
-8 0 -14 -4 -14 -10z"></path>
<path d="M5461 5099 c-24 -27 -41 -52 -39 -55 7 -6 88 83 88 96 0 15 -2 14
-49 -41z"></path>
<path d="M2354 5109 c-19 -21 -19 -21 11 -8 42 18 53 29 29 29 -12 0 -29 -9
-40 -21z"></path>
<path d="M4585 5122 c6 -5 21 -13 34 -17 17 -5 22 -4 19 6 -3 8 -18 15 -34 17
-19 2 -25 0 -19 -6z"></path>
<path d="M2295 5080 c-3 -5 1 -10 9 -10 8 0 18 5 21 10 3 6 -1 10 -9 10 -8 0
-18 -4 -21 -10z"></path>
<path d="M4675 5080 c3 -5 10 -10 16 -10 5 0 9 5 9 10 0 6 -7 10 -16 10 -8 0
-12 -4 -9 -10z"></path>
<path d="M2234 5034 c-18 -14 -18 -15 4 -4 12 6 22 13 22 15 0 8 -5 6 -26 -11z"></path>
<path d="M2190 5013 c-26 -10 -71 -45 -66 -51 6 -5 86 44 86 53 0 3 -1 5 -2 4
-2 0 -10 -3 -18 -6z"></path>
<path d="M5374 4999 c-13 -14 -27 -19 -47 -16 -17 2 -26 -1 -24 -7 7 -22 52
-17 77 9 13 13 21 27 18 30 -2 3 -13 -4 -24 -16z"></path>
<path d="M5157 4973 c-4 -3 -7 -11 -7 -17 0 -6 5 -5 12 2 6 6 9 14 7 17 -3 3
-9 2 -12 -2z"></path>
<path d="M2065 4930 c-3 -6 -39 -34 -78 -64 -69 -51 -117 -96 -103 -96 3 0 44
31 90 68 46 37 94 75 107 84 19 13 20 17 7 17 -9 1 -20 -4 -23 -9z"></path>
<path d="M3550 4860 c0 -5 5 -10 10 -10 6 0 10 5 10 10 0 6 -4 10 -10 10 -5 0
-10 -4 -10 -10z"></path>
<path d="M3650 4860 c0 -5 5 -10 10 -10 6 0 10 5 10 10 0 6 -4 10 -10 10 -5 0
-10 -4 -10 -10z"></path>
<path d="M3200 4850 c0 -5 20 -10 45 -10 25 0 45 5 45 10 0 6 -20 10 -45 10
-25 0 -45 -4 -45 -10z"></path>
<path d="M3700 4850 c0 -6 27 -10 60 -10 33 0 60 4 60 10 0 6 -27 10 -60 10
-33 0 -60 -4 -60 -10z"></path>
<path d="M3030 4810 c0 -5 5 -10 10 -10 6 0 10 5 10 10 0 6 -4 10 -10 10 -5 0
-10 -4 -10 -10z"></path>
<path d="M5100 4792 c0 -11 129 -137 134 -131 6 6 -115 139 -127 139 -4 0 -7
-4 -7 -8z"></path>
<path d="M1759 4663 c-121 -123 -229 -252 -229 -273 0 -10 31 -44 71 -77 39
-32 100 -82 136 -111 35 -29 68 -52 73 -50 9 3 -4 15 -170 146 -48 38 -86 77
-88 88 -3 23 91 139 227 277 47 48 81 87 76 87 -6 0 -49 -39 -96 -87z"></path>
<path d="M5280 4610 c0 -5 5 -10 11 -10 5 0 7 5 4 10 -3 6 -8 10 -11 10 -2 0
-4 -4 -4 -10z"></path>
<path d="M2525 4600 c-3 -5 1 -10 9 -10 8 0 18 5 21 10 3 6 -1 10 -9 10 -8 0
-18 -4 -21 -10z"></path>
<path d="M2470 4570 c-46 -26 -88 -59 -73 -60 6 0 18 6 25 14 8 7 23 16 35 20
11 4 28 15 38 26 22 24 19 24 -25 0z"></path>
<path d="M5330 4564 c0 -6 9 -19 19 -28 11 -10 48 -56 82 -102 35 -46 67 -84
71 -84 13 0 9 28 -6 37 -8 4 -32 31 -54 58 -64 81 -111 131 -112 119z"></path>
<path d="M4569 4536 c14 -14 31 -26 38 -26 21 0 6 18 -30 36 l-32 17 24 -27z"></path>
<path d="M4640 4486 c0 -7 102 -78 105 -74 5 5 -86 78 -96 78 -5 0 -9 -2 -9
-4z"></path>
<path d="M2145 4310 c-60 -60 -107 -112 -104 -114 3 -3 56 46 119 109 63 63
110 115 105 115 -6 0 -60 -49 -120 -110z"></path>
<path d="M3605 4410 c-4 -6 5 -20 19 -31 14 -11 26 -29 26 -40 0 -10 5 -19 10
-19 6 0 10 15 10 33 0 47 -47 87 -65 57z"></path>
<path d="M3423 4400 c-26 -11 -29 -36 -8 -64 18 -24 21 -186 4 -217 -6 -11 -8
-25 -6 -32 2 -7 11 2 20 20 20 37 24 184 7 229 -12 31 1 54 31 54 11 0 19 5
19 10 0 12 -37 12 -67 0z"></path>
<path d="M3540 4400 c0 -5 7 -10 15 -10 8 0 15 5 15 10 0 6 -7 10 -15 10 -8 0
-15 -4 -15 -10z"></path>
<path d="M4770 4382 c0 -5 35 -43 78 -84 42 -42 102 -103 132 -136 30 -33 57
-59 59 -56 6 6 -83 109 -173 202 -76 78 -96 93 -96 74z"></path>
<path d="M5520 4321 c0 -10 62 -104 83 -126 14 -14 0 11 -35 62 -15 23 -28 46
-28 52 0 5 -4 13 -10 16 -5 3 -10 1 -10 -4z"></path>
<path d="M3650 4255 c0 -14 5 -25 10 -25 6 0 10 11 10 25 0 14 -4 25 -10 25
-5 0 -10 -11 -10 -25z"></path>
<path d="M1977 4124 c-33 -38 -42 -43 -65 -37 -24 6 -26 5 -13 -10 23 -29 48
-19 86 34 20 28 35 52 33 54 -2 2 -20 -17 -41 -41z"></path>
<path d="M1352 4128 c-6 -6 -12 -17 -12 -23 0 -6 -16 -30 -35 -52 -19 -23 -35
-45 -35 -49 0 -4 -16 -26 -35 -50 -19 -23 -35 -46 -35 -50 0 -4 -9 -18 -21
-30 -12 -12 -19 -28 -17 -34 2 -7 22 17 45 52 23 34 66 97 95 138 45 62 59 75
82 75 19 -1 26 4 24 15 -4 19 -39 25 -56 8z"></path>
<path d="M3650 4130 c0 -5 5 -10 10 -10 6 0 10 5 10 10 0 6 -4 10 -10 10 -5 0
-10 -4 -10 -10z"></path>
<path d="M3672 4088 c2 -6 15 -18 29 -27 l24 -15 -24 27 c-26 29 -35 34 -29
15z"></path>
<path d="M5660 4083 c0 -5 7 -18 15 -29 15 -18 15 -18 13 5 -3 23 -28 44 -28
24z"></path>
<path d="M5060 4076 c0 -5 8 -20 18 -34 10 -15 22 -36 27 -47 4 -12 9 -15 12
-8 2 6 -10 31 -26 54 -17 23 -31 39 -31 35z"></path>
<path d="M3343 4040 c-44 -26 -42 -34 3 -15 20 8 38 15 40 15 2 0 4 5 4 10 0
15 -11 12 -47 -10z"></path>
<path d="M3772 4053 c-68 -6 -38 -23 41 -23 96 0 243 -41 276 -78 21 -23 23
-32 17 -88 -7 -70 -26 -124 -51 -144 -15 -12 -24 -12 -64 4 -25 9 -75 23 -111
31 -36 7 -78 18 -93 24 -16 6 -93 11 -173 11 -131 0 -149 -2 -208 -26 -126
-50 -196 -143 -196 -260 0 -76 26 -127 99 -197 62 -60 190 -127 391 -207 363
-145 540 -354 540 -637 0 -122 -59 -272 -147 -372 -72 -83 -229 -180 -316
-195 -52 -10 -112 -42 -131 -71 -13 -19 -16 -54 -16 -163 0 -149 -4 -162 -52
-162 -15 0 -28 -4 -28 -10 0 -14 74 -12 88 2 8 8 12 60 12 169 l0 158 28 20
c16 11 57 25 91 30 40 7 75 19 96 36 19 14 39 25 46 25 25 0 153 95 200 149
62 72 91 128 129 251 38 122 39 144 11 245 -13 44 -28 98 -34 120 -5 22 -21
53 -34 68 -12 16 -23 34 -23 41 0 7 -13 22 -30 34 -16 13 -30 28 -30 34 0 14
-91 98 -106 98 -6 0 -17 7 -24 15 -12 14 -115 67 -270 137 -36 16 -82 38 -102
49 -20 10 -45 19 -56 19 -10 0 -27 9 -37 20 -10 11 -26 20 -35 20 -10 0 -28 8
-41 19 -13 10 -34 21 -45 25 -24 7 -80 59 -119 111 -22 28 -27 47 -29 102 -2
37 -1 80 2 95 7 40 96 135 135 143 17 4 40 14 49 22 25 22 357 21 410 -1 21
-9 53 -16 71 -16 19 0 45 -9 58 -19 14 -11 45 -20 74 -22 49 -4 49 -4 58 31 5
19 15 52 23 73 8 20 14 68 14 106 l0 69 -43 21 c-24 12 -53 21 -66 21 -12 0
-38 8 -59 19 -40 19 -120 30 -190 24z"></path>
<path d="M5701 4002 c12 -35 29 -52 29 -29 0 8 -9 25 -20 38 l-20 24 11 -33z"></path>
<path d="M1482 4005 c5 -16 138 -214 149 -220 5 -4 6 2 2 12 -8 21 -55 87 -65
91 -5 2 -8 9 -8 15 0 7 -11 25 -24 40 -13 16 -32 38 -41 50 -8 12 -14 17 -13
12z"></path>
<path d="M3185 3990 c-10 -11 -23 -20 -29 -20 -37 0 -246 -167 -246 -196 0 -6
-9 -23 -20 -37 -11 -14 -20 -38 -20 -55 0 -16 -8 -36 -18 -45 -16 -15 -19 -35
-20 -164 -1 -126 2 -154 19 -192 10 -24 19 -55 19 -69 0 -35 76 -120 174 -195
76 -58 177 -116 202 -117 6 0 17 -7 24 -15 7 -8 19 -15 27 -15 8 0 29 -6 46
-14 18 -7 64 -26 102 -41 220 -88 284 -131 360 -245 33 -49 35 -57 35 -137 0
-89 -10 -120 -57 -178 -37 -45 -105 -94 -131 -95 -12 0 -40 -9 -62 -20 -33
-17 -59 -20 -171 -20 -102 0 -136 3 -149 15 -9 8 -43 17 -75 21 -65 7 -158 39
-247 86 -31 17 -61 27 -67 23 -6 -3 -11 -25 -11 -47 0 -24 -7 -49 -16 -59 -18
-20 -32 -109 -18 -109 5 0 15 24 22 54 13 55 37 112 51 120 4 3 57 -15 117
-39 61 -25 132 -48 160 -51 27 -4 64 -15 82 -25 27 -15 54 -19 144 -19 114 0
149 8 277 67 53 24 122 93 147 148 34 72 34 182 -1 251 -57 115 -167 190 -428
295 -316 127 -467 244 -527 408 -21 57 -23 79 -21 209 l1 146 40 81 c29 60 56
97 102 141 74 71 186 139 245 149 61 10 63 25 5 25 -36 0 -54 -5 -67 -20z"></path>
<path d="M5140 3951 c0 -6 4 -13 10 -16 6 -3 7 1 4 9 -7 18 -14 21 -14 7z"></path>
<path d="M5750 3896 c0 -8 5 -18 10 -21 6 -3 10 1 10 9 0 8 -4 18 -10 21 -5 3
-10 -1 -10 -9z"></path>
<path d="M5180 3880 c6 -11 13 -20 16 -20 2 0 0 9 -6 20 -6 11 -13 20 -16 20
-2 0 0 -9 6 -20z"></path>
<path d="M1123 3788 c-23 -30 -24 -41 -2 -21 12 12 20 25 17 28 -3 3 -10 0
-15 -7z"></path>
<path d="M1645 3760 c5 -8 24 -37 44 -65 20 -27 41 -57 46 -66 88 -139 149
-222 153 -210 2 6 -9 28 -25 49 -16 20 -35 47 -43 58 -102 148 -134 194 -156
219 -15 17 -23 23 -19 15z"></path>
<path d="M1066 3703 c-6 -14 -5 -15 5 -6 7 7 10 15 7 18 -3 3 -9 -2 -12 -12z"></path>
<path d="M1003 3618 c-18 -22 -33 -44 -33 -50 0 -5 -4 -14 -10 -21 -50 -61
-61 -78 -58 -88 2 -6 15 7 29 28 14 21 45 66 69 101 49 72 50 88 3 30z"></path>
<path d="M5360 3440 c0 -5 5 -10 10 -10 6 0 10 5 10 10 0 6 -4 10 -10 10 -5 0
-10 -4 -10 -10z"></path>
<path d="M842 3379 c-17 -27 -32 -52 -32 -56 0 -4 16 16 36 45 20 30 34 55 32
57 -2 2 -18 -19 -36 -46z"></path>
<path d="M5370 3390 c0 -5 5 -10 10 -10 6 0 10 5 10 10 0 6 -4 10 -10 10 -5 0
-10 -4 -10 -10z"></path>
<path d="M1940 3331 c0 -5 7 -15 17 -22 15 -13 15 -12 4 9 -12 23 -21 28 -21
13z"></path>
<path d="M5400 3250 c0 -27 5 -50 10 -50 6 0 10 23 10 50 0 28 -4 50 -10 50
-5 0 -10 -22 -10 -50z"></path>
<path d="M1998 3255 c6 -11 17 -29 26 -40 12 -16 15 -17 16 -4 0 8 -12 26 -26
40 -22 20 -25 21 -16 4z"></path>
<path d="M5410 3135 c0 -14 5 -25 10 -25 6 0 10 11 10 25 0 14 -4 25 -10 25
-5 0 -10 -11 -10 -25z"></path>
<path d="M2080 3135 c1 -17 29 -49 37 -41 4 3 -3 16 -15 29 -12 12 -22 17 -22
12z"></path>
<path d="M656 3113 c-6 -14 -5 -15 5 -6 7 7 10 15 7 18 -3 3 -9 -2 -12 -12z"></path>
<path d="M608 3045 c-21 -24 -38 -49 -38 -57 0 -14 38 29 65 75 22 37 16 34
-27 -18z"></path>
<path d="M2130 3064 c0 -5 7 -18 15 -28 8 -11 15 -16 15 -10 0 5 -7 18 -15 28
-8 11 -15 16 -15 10z"></path>
<path d="M2180 2997 c0 -5 11 -25 25 -45 14 -20 25 -33 25 -29 0 5 -11 25 -25
45 -14 20 -25 33 -25 29z"></path>
<path d="M465 2847 c-62 -77 -61 -75 -49 -94 19 -31 39 -22 36 16 -3 25 4 45
28 78 44 61 34 61 -15 0z"></path>
<path d="M2250 2891 c0 -6 4 -13 10 -16 6 -3 7 1 4 9 -7 18 -14 21 -14 7z"></path>
<path d="M2300 2821 c0 -5 4 -12 10 -16 6 -4 6 -15 0 -31 -13 -34 -13 -34 9
-34 31 0 34 29 6 62 -14 16 -25 25 -25 19z"></path>
<path d="M5410 2720 c0 -11 5 -20 10 -20 6 0 10 9 10 20 0 11 -4 20 -10 20 -5
0 -10 -9 -10 -20z"></path>
<path d="M1580 2640 c0 -22 5 -40 10 -40 6 0 10 18 10 40 0 22 -4 40 -10 40
-5 0 -10 -18 -10 -40z"></path>
<path d="M5400 2620 c0 -27 5 -50 10 -50 6 0 10 23 10 50 0 28 -4 50 -10 50
-5 0 -10 -22 -10 -50z"></path>
<path d="M5375 2497 c-4 -10 -5 -21 -1 -24 10 -10 18 4 13 24 -4 17 -4 17 -12
0z"></path>
<path d="M1620 2460 c0 -5 5 -10 10 -10 6 0 10 5 10 10 0 6 -4 10 -10 10 -5 0
-10 -4 -10 -10z"></path>
<path d="M5360 2435 c0 -8 5 -15 10 -15 6 0 10 7 10 15 0 8 -4 15 -10 15 -5 0
-10 -7 -10 -15z"></path>
<path d="M1120 2320 c0 -5 5 -10 10 -10 6 0 10 5 10 10 0 6 -4 10 -10 10 -5 0
-10 -4 -10 -10z"></path>
<path d="M1150 2230 c0 -5 5 -10 10 -10 6 0 10 5 10 10 0 6 -4 10 -10 10 -5 0
-10 -4 -10 -10z"></path>
<path d="M1160 2186 c0 -8 5 -18 10 -21 6 -3 10 3 10 14 0 12 -4 21 -10 21 -5
0 -10 -6 -10 -14z"></path>
<path d="M1752 2120 c6 -19 16 -42 23 -50 7 -8 16 -26 20 -40 4 -14 11 -30 16
-36 5 -6 21 -33 35 -59 27 -51 65 -104 63 -89 0 5 -9 23 -19 39 -11 17 -26 44
-34 61 -8 17 -19 35 -25 38 -6 4 -11 17 -11 30 0 13 -9 31 -20 41 -11 10 -20
26 -20 35 0 10 -9 28 -20 41 l-20 24 12 -35z"></path>
<path d="M1190 2116 c0 -9 5 -16 10 -16 6 0 10 4 10 9 0 6 -4 13 -10 16 -5 3
-10 -1 -10 -9z"></path>
<path d="M1200 2065 c0 -8 5 -15 10 -15 6 0 10 7 10 15 0 8 -4 15 -10 15 -5 0
-10 -7 -10 -15z"></path>
<path d="M2805 2010 l-20 -22 35 -29 c19 -15 42 -29 51 -29 21 0 106 -38 114
-50 3 -6 27 -10 53 -10 29 0 57 -7 72 -17 19 -14 51 -19 132 -21 140 -5 142
-7 146 -148 2 -57 8 -104 13 -104 5 0 9 39 9 86 0 145 -31 183 -158 190 -88 6
-200 33 -319 77 -89 32 -99 39 -105 76 l-3 23 -20 -22z"></path>
<path d="M5186 2011 c-4 -7 -5 -15 -2 -18 9 -9 19 4 14 18 -4 11 -6 11 -12 0z"></path>
<path d="M5757 1994 c-4 -4 -7 -14 -7 -23 0 -11 3 -12 11 -4 6 6 10 16 7 23
-2 6 -7 8 -11 4z"></path>
<path d="M1240 1971 c0 -6 5 -13 10 -16 6 -3 10 1 10 9 0 9 -4 16 -10 16 -5 0
-10 -4 -10 -9z"></path>
<path d="M5154 1948 c-4 -7 -14 -24 -22 -38 -14 -24 -13 -24 3 -5 20 24 37 55
31 55 -3 0 -8 -6 -12 -12z"></path>
<path d="M5712 1893 c-18 -32 -16 -51 4 -31 9 8 14 24 12 34 -4 18 -5 17 -16
-3z"></path>
<path d="M5072 1824 c-12 -18 -22 -37 -22 -41 0 -4 12 10 26 30 14 21 24 40
22 42 -2 2 -13 -12 -26 -31z"></path>
<path d="M1320 1807 c0 -8 6 -20 14 -26 12 -10 13 -8 9 9 -7 25 -23 37 -23 17z"></path>
<path d="M5677 1814 c-4 -4 -7 -14 -7 -23 0 -11 3 -12 11 -4 6 6 10 16 7 23
-2 6 -7 8 -11 4z"></path>
<path d="M1960 1774 c0 -5 9 -20 20 -34 14 -18 20 -21 20 -9 0 9 -9 24 -20 34
-11 10 -20 14 -20 9z"></path>
<path d="M5631 1726 c-13 -33 -9 -43 8 -22 7 8 11 23 8 33 -3 14 -6 12 -16
-11z"></path>
<path d="M4980 1705 c-7 -9 -11 -18 -8 -20 3 -3 11 1 18 10 7 9 11 18 8 20 -3
3 -11 -1 -18 -10z"></path>
<path d="M2020 1693 c0 -5 11 -20 25 -33 14 -13 25 -19 25 -13 0 5 -11 20 -25
33 -14 13 -25 19 -25 13z"></path>
<path d="M1420 1640 c6 -11 13 -20 16 -20 2 0 0 9 -6 20 -6 11 -13 20 -16 20
-2 0 0 -9 6 -20z"></path>
<path d="M4845 1560 c-112 -113 -120 -135 -11 -33 78 74 121 122 114 128 -2 2
-49 -41 -103 -95z"></path>
<path d="M5565 1619 c-4 -6 -5 -12 -2 -15 2 -3 7 2 10 11 7 17 1 20 -8 4z"></path>
<path d="M2090 1612 c0 -11 59 -67 64 -61 5 4 -50 69 -59 69 -3 0 -5 -4 -5 -8z"></path>
<path d="M1466 1567 c3 -10 9 -15 12 -12 3 3 0 11 -7 18 -10 9 -11 8 -5 -6z"></path>
<path d="M5506 1532 c-26 -39 -33 -58 -17 -48 9 6 53 86 47 86 -2 0 -15 -17
-30 -38z"></path>
<path d="M3390 1517 c0 -33 15 -44 55 -39 40 5 48 22 10 22 -14 0 -30 9 -37
20 -17 27 -28 25 -28 -3z"></path>
<path d="M1506 1507 c3 -10 9 -15 12 -12 3 3 0 11 -7 18 -10 9 -11 8 -5 -6z"></path>
<path d="M2239 1471 c30 -28 59 -51 64 -51 11 0 -91 94 -107 98 -6 2 13 -20
43 -47z"></path>
<path d="M1560 1442 c0 -12 101 -134 107 -128 3 2 -20 34 -51 70 -31 37 -56
63 -56 58z"></path>
<path d="M5427 1422 c-32 -33 -36 -54 -6 -26 20 18 44 54 36 54 -2 0 -15 -13
-30 -28z"></path>
<path d="M4656 1395 c-11 -8 -16 -15 -10 -15 5 0 18 7 28 15 11 8 16 15 10 15
-5 0 -18 -7 -28 -15z"></path>
<path d="M2335 1390 c3 -5 11 -10 16 -10 6 0 7 5 4 10 -3 6 -11 10 -16 10 -6
0 -7 -4 -4 -10z"></path>
<path d="M2387 1359 c7 -7 15 -10 18 -7 3 3 -2 9 -12 12 -14 6 -15 5 -6 -5z"></path>
<path d="M5355 1340 c-10 -11 -16 -22 -13 -25 3 -3 13 4 23 15 10 11 16 22 13
25 -3 3 -13 -4 -23 -15z"></path>
<path d="M2430 1326 c0 -7 156 -96 169 -96 24 0 0 19 -64 50 -36 17 -67 36
-70 41 -6 9 -35 13 -35 5z"></path>
<path d="M4555 1320 c-3 -6 1 -7 9 -4 18 7 21 14 7 14 -6 0 -13 -4 -16 -10z"></path>
<path d="M1680 1294 c0 -17 125 -147 138 -143 7 2 -20 36 -63 79 -41 41 -75
70 -75 64z"></path>
<path d="M4479 1282 c-13 -10 -32 -21 -41 -25 -10 -3 -18 -11 -18 -17 0 -13
17 -13 25 0 3 5 21 17 40 26 19 9 35 20 35 25 0 14 -15 11 -41 -9z"></path>
<path d="M5220 1195 c-41 -41 -70 -75 -64 -75 13 0 149 138 143 144 -3 3 -38
-28 -79 -69z"></path>
<path d="M4334 1204 c-18 -15 -18 -15 11 -9 37 8 57 25 29 25 -11 0 -29 -7
-40 -16z"></path>
<path d="M1870 1105 c0 -8 213 -175 223 -175 4 0 -37 36 -91 79 -55 44 -103
84 -107 90 -6 11 -25 15 -25 6z"></path>
<path d="M5047 1042 c-19 -21 -22 -32 -8 -32 5 0 16 11 25 25 19 29 7 34 -17
7z"></path>
<path d="M3820 1030 c0 -5 7 -10 15 -10 8 0 15 5 15 10 0 6 -7 10 -15 10 -8 0
-15 -4 -15 -10z"></path>
<path d="M4906 930 c-48 -36 -57 -46 -31 -32 32 17 90 62 79 62 -5 0 -26 -14
-48 -30z"></path>
<path d="M2400 740 c14 -11 32 -20 40 -20 19 0 3 13 -35 28 l-30 13 25 -21z"></path>
<path d="M4558 733 c-10 -2 -18 -9 -18 -15 0 -5 7 -7 16 -4 9 3 20 6 25 6 5 0
9 5 9 10 0 10 -3 11 -32 3z"></path>
<path d="M2491 694 c6 -8 19 -14 28 -14 9 0 32 -8 51 -18 43 -23 90 -35 90
-24 0 5 -19 15 -42 21 -24 7 -48 18 -55 23 -7 5 -29 14 -48 18 -30 7 -34 6
-24 -6z"></path>
<path d="M4457 685 c-16 -8 -46 -20 -68 -26 -21 -7 -39 -16 -39 -21 0 -13 23
-9 64 11 21 11 51 23 67 26 16 4 31 11 34 16 9 14 -27 11 -58 -6z"></path>
<path d="M2690 621 c0 -11 39 -26 47 -17 8 8 3 12 -24 20 -13 4 -23 3 -23 -3z"></path>
<path d="M4248 613 c-10 -2 -18 -9 -18 -15 0 -11 60 -1 75 13 9 9 -25 11 -57
2z"></path>
<path d="M2760 600 c0 -5 5 -10 10 -10 6 0 10 5 10 10 0 6 -4 10 -10 10 -5 0
-10 -4 -10 -10z"></path>
<path d="M4130 570 c0 -5 5 -10 10 -10 6 0 10 5 10 10 0 6 -4 10 -10 10 -5 0
-10 -4 -10 -10z"></path>
</g>
</svg>