 <svg version="1.0" xmlns="http://www.w3.org/2000/svg" width="700.000000pt" height="700.000000pt" viewBox="0 0 700.000000 700.000000" preserveAspectRatio="xMidYMid meet">
<metadata>
Created by potrace 1.12, written by Peter Selinger 2001-2015
</metadata>
<g transform="translate(0.000000,700.000000) scale(0.100000,-0.100000)" fill="#fff" stroke="none">
<path d="M3260 6044 c-423 -16 -945 -51 -1125 -75 -111 -14 -260 -47 -318 -70
-77 -31 -167 -96 -183 -134 -7 -18 -43 -82 -80 -142 -134 -220 -316 -609 -446
-952 -52 -140 -86 -201 -110 -201 -19 0 -28 51 -17 100 8 40 7 60 -5 104 -32
108 -103 157 -227 157 -99 0 -176 -29 -247 -96 -49 -46 -55 -55 -59 -100 -5
-62 17 -107 75 -152 66 -50 145 -76 237 -78 l80 -1 3 -43 c3 -40 0 -46 -60
-109 -66 -71 -227 -281 -318 -416 -140 -209 -188 -427 -159 -734 16 -177 16
-173 5 -742 -9 -432 0 -699 29 -935 19 -155 21 -163 56 -272 35 -108 61 -149
109 -177 32 -20 54 -21 297 -24 229 -3 266 -1 295 14 69 35 113 95 102 138 -4
16 0 34 10 48 13 18 16 54 16 200 l0 178 2305 0 2305 0 0 -157 c0 -209 13
-321 40 -348 24 -23 52 -25 415 -15 196 5 235 8 265 24 91 48 105 80 124 292
38 426 44 912 15 1287 -8 109 -8 180 0 273 6 68 11 209 11 313 0 265 -25 400
-113 601 -33 76 -57 112 -125 190 -46 52 -124 147 -172 210 -49 63 -105 131
-124 149 -21 20 -36 45 -36 58 0 22 3 23 75 23 127 0 230 47 285 129 64 95 17
192 -125 258 -89 41 -196 45 -268 9 -89 -43 -124 -113 -113 -227 12 -134 -31
-135 -74 -2 -78 239 -320 734 -528 1080 -32 54 -61 106 -65 115 -3 9 -25 30
-48 45 -23 15 -53 36 -68 46 -106 71 -362 113 -866 142 -242 14 -901 26 -1075
19z m1600 -208 c118 -8 255 -18 304 -22 l89 -6 182 -372 c294 -599 424 -881
410 -894 -6 -6 -292 20 -470 44 -193 26 -266 33 -440 43 -725 45 -1924 60
-2280 28 -110 -9 -231 -21 -270 -27 -38 -5 -117 -14 -175 -20 -58 -6 -197 -24
-310 -40 -251 -36 -502 -60 -634 -60 l-98 0 6 30 c19 96 360 888 489 1135 l52
100 65 7 c189 19 826 54 1245 68 392 13 1585 4 1835 -14z m-3624 -1757 c102
-27 166 -62 232 -126 122 -121 145 -304 59 -468 -88 -165 -311 -285 -532 -285
-188 0 -353 97 -422 248 -50 108 -42 280 20 395 35 67 127 157 197 192 127 64
302 82 446 44z m4803 1 c185 -52 297 -151 351 -311 29 -86 25 -249 -8 -320
-28 -60 -99 -139 -159 -177 -200 -126 -514 -82 -710 101 -174 163 -188 417
-32 578 121 125 367 181 558 129z m-1369 -405 c446 -26 467 -29 497 -56 36
-33 56 -84 48 -123 -17 -81 -167 -311 -253 -386 -166 -147 -432 -187 -1382
-207 -512 -10 -1238 51 -1421 120 -128 48 -228 132 -315 263 -56 85 -123 231
-124 271 0 54 73 77 287 92 76 6 212 15 303 22 321 22 583 27 1335 24 538 -3
837 -8 1025 -20z m-3542 -1226 c89 -43 126 -153 82 -244 -51 -106 -191 -137
-285 -63 -72 57 -87 183 -29 255 59 73 147 93 232 52z m4925 7 c43 -17 93 -76
106 -123 13 -47 13 -49 1 -95 -30 -105 -149 -164 -248 -123 -75 32 -115 90
-115 170 0 75 47 148 113 174 36 14 106 13 143 -3z"></path>
</g>
</svg>