 <svg version="1.0" xmlns="http://www.w3.org/2000/svg" width="700.000000pt" height="700.000000pt" viewBox="0 0 700.000000 700.000000" preserveAspectRatio="xMidYMid meet">
<metadata>
Created by potrace 1.12, written by Peter Selinger 2001-2015
</metadata>
<g transform="translate(0.000000,700.000000) scale(0.100000,-0.100000)" fill="#fff" stroke="none">
<path d="M3116 6966 c-10 -55 -39 -81 -128 -116 -113 -45 -137 -62 -259 -181
-85 -84 -118 -125 -171 -214 -130 -218 -146 -270 -154 -495 -10 -254 33 -474
123 -624 83 -139 121 -194 170 -248 29 -31 64 -81 79 -110 14 -29 45 -77 67
-107 36 -46 42 -61 45 -115 5 -81 -13 -123 -74 -171 -95 -75 -137 -121 -165
-180 -24 -50 -29 -73 -29 -136 0 -42 7 -95 15 -118 19 -54 148 -196 196 -215
20 -8 96 -23 170 -34 116 -16 185 -19 524 -17 404 3 542 13 642 51 63 23 178
152 199 221 49 166 -11 312 -175 423 -28 19 -58 49 -66 67 -30 63 -13 175 34
228 10 11 35 49 55 85 21 36 59 88 86 115 26 28 85 108 130 178 114 180 151
291 170 523 17 202 -12 428 -74 568 -42 94 -169 257 -279 357 -84 77 -118 100
-202 140 -105 49 -139 78 -150 129 l-7 30 -383 0 -383 0 -6 -34z m585 -272
c115 -22 164 -42 261 -110 130 -90 224 -192 282 -304 112 -214 105 -196 115
-320 16 -189 5 -238 -85 -415 -46 -89 -94 -169 -119 -196 -24 -25 -55 -65 -70
-90 -15 -24 -48 -69 -74 -99 -68 -80 -78 -99 -116 -219 -36 -111 -80 -187
-153 -265 -56 -59 -77 -64 -253 -62 -184 3 -199 9 -275 109 -57 77 -95 151
-122 243 -12 39 -36 92 -54 117 -114 160 -148 206 -192 261 -26 33 -64 92 -83
130 -19 39 -46 88 -60 109 -57 90 -76 202 -62 365 11 132 16 147 98 302 56
106 79 138 151 211 93 95 212 178 291 204 135 45 368 58 520 29z"></path>
<path d="M905 5700 c-608 -6 -623 -7 -680 -52 -43 -34 -103 -172 -116 -265 -7
-52 -9 -738 -7 -2098 l4 -2020 27 -94 c35 -119 59 -159 111 -182 75 -33 201
-50 356 -48 111 2 153 -2 180 -13 19 -8 85 -56 145 -106 115 -96 148 -112 230
-112 73 0 125 -18 162 -55 56 -56 43 -102 -57 -200 -34 -33 -88 -94 -120 -135
-32 -41 -76 -95 -99 -120 -42 -47 -66 -98 -75 -162 l-5 -38 183 0 184 0 7 46
c5 38 17 58 63 108 32 33 68 77 81 96 14 19 50 63 80 96 31 34 90 101 131 149
123 144 154 172 212 191 49 17 160 18 1553 20 884 2 1532 -1 1578 -6 43 -5 93
-17 111 -25 32 -16 166 -155 316 -330 41 -49 100 -116 131 -149 67 -72 89
-112 89 -161 l0 -35 190 0 190 0 -6 43 c-9 66 -51 143 -113 210 -32 34 -76 86
-99 116 -24 29 -65 74 -93 98 -82 74 -97 123 -56 183 28 43 73 58 170 59 97 1
125 15 248 119 142 120 120 112 305 112 164 0 301 17 353 45 37 19 64 51 101
122 33 64 58 87 104 99 l26 6 0 2093 0 2093 -33 20 c-40 23 -92 86 -136 165
-69 121 -27 117 -1029 117 -709 0 -838 -2 -868 -15 -46 -19 -153 -121 -170
-162 -30 -70 -6 -129 65 -162 32 -14 124 -17 816 -21 834 -5 803 -3 844 -56
52 -67 50 14 51 -1942 1 -1634 -1 -1822 -15 -1870 -21 -68 -65 -118 -118 -134
-32 -9 -729 -12 -2927 -12 l-2885 -1 -40 20 c-32 17 -47 35 -73 86 l-33 66 1
1829 c0 1256 4 1842 11 1869 15 57 46 103 82 123 29 16 98 17 812 22 738 5
782 6 818 24 43 21 67 60 67 106 0 40 -12 62 -72 132 -81 94 -88 96 -408 100
-151 1 -536 1 -855 -2z m2899 -4560 c97 -22 116 -116 33 -166 -29 -17 -56 -19
-332 -19 -322 0 -349 4 -380 51 -35 54 -4 118 67 134 47 10 566 11 612 0z"></path>
<path d="M3210 3771 c-46 -9 -76 -29 -89 -58 -29 -64 -3 -94 140 -163 106 -51
117 -54 204 -58 113 -5 182 11 304 72 126 64 149 105 93 167 -28 31 -33 33
-133 40 -127 10 -471 9 -519 0z"></path>
<path d="M903 3213 c-38 -7 -80 -56 -98 -114 -14 -48 -16 -128 -15 -714 l1
-660 22 -44 c30 -61 80 -86 169 -86 75 0 109 18 143 76 19 33 20 52 20 729 0
687 0 696 -21 741 -26 57 -69 80 -146 78 -29 -1 -63 -4 -75 -6z"></path>
<path d="M5511 3115 c-117 -18 -197 -41 -233 -66 -65 -47 -60 -224 8 -280 12
-10 46 -14 113 -15 53 0 159 -3 236 -6 171 -7 416 12 462 36 44 22 65 68 71
152 5 86 -10 116 -71 138 -119 44 -425 66 -586 41z"></path>
<path d="M2107 2828 c-50 -14 -102 -64 -116 -113 -14 -52 -15 -955 -1 -1006
19 -67 93 -118 181 -127 58 -5 135 33 176 87 26 33 28 45 33 156 3 66 5 290 3
498 -3 416 -2 408 -67 465 -56 49 -126 62 -209 40z"></path>
<path d="M4276 2724 c-82 -18 -139 -45 -184 -88 -92 -86 -80 -179 28 -215 19
-6 102 -16 184 -21 82 -5 176 -13 210 -16 60 -6 258 21 349 48 78 23 107 81
73 147 -19 36 -99 109 -139 126 -85 35 -391 46 -521 19z"></path>
<path d="M5262 2612 c-36 -39 -46 -83 -28 -126 23 -54 56 -68 182 -76 96 -6
120 -11 176 -38 35 -18 71 -32 78 -32 8 0 53 13 100 29 55 19 123 33 192 40
119 12 167 27 192 62 32 46 14 112 -37 141 -16 10 -102 13 -332 13 -170 1
-351 5 -402 9 l-92 9 -29 -31z"></path>
<path d="M2694 2451 c-28 -13 -46 -30 -60 -57 -17 -36 -19 -67 -22 -352 -3
-302 -2 -315 18 -357 43 -88 191 -126 261 -68 65 55 69 75 69 401 0 353 -5
383 -80 435 -34 23 -132 22 -186 -2z"></path>
<path d="M5283 2285 c-34 -14 -63 -59 -63 -97 0 -13 14 -52 31 -88 44 -93 47
-140 15 -229 -57 -157 -26 -209 150 -256 80 -22 363 -31 475 -16 170 23 237
49 269 103 19 36 4 94 -33 122 -27 20 -28 20 -110 2 -101 -22 -427 -33 -536
-18 -84 12 -121 38 -121 83 0 51 16 54 372 59 l328 5 23 25 c30 32 81 162 81
206 0 44 -29 74 -80 83 -22 4 -168 3 -326 -1 -271 -8 -291 -7 -360 12 -85 23
-75 23 -115 5z"></path>
<path d="M4112 2270 c-41 -10 -82 -47 -82 -74 0 -32 79 -209 102 -228 18 -16
50 -18 352 -18 243 0 338 4 356 13 14 7 36 35 50 63 14 29 42 70 62 93 21 22
40 52 44 66 9 37 -18 73 -62 81 -43 8 -182 -2 -239 -18 -51 -13 -331 -2 -435
18 -82 15 -99 16 -148 4z"></path>
<path d="M1494 2246 c-40 -17 -71 -58 -85 -110 -7 -24 -12 -122 -12 -233 0
-182 1 -193 23 -228 27 -44 103 -95 141 -95 36 0 102 24 138 51 58 42 64 74
59 301 -5 247 -11 266 -90 303 -59 28 -126 32 -174 11z"></path>
<path d="M4878 1854 c-52 -37 -95 -44 -329 -51 -171 -5 -223 -3 -303 11 -77
14 -102 15 -131 6 -62 -20 -80 -93 -36 -144 51 -60 232 -91 485 -83 107 3 201
12 231 20 74 21 142 53 169 80 54 54 39 187 -21 187 -16 0 -45 -12 -65 -26z"></path>
</g>
</svg>