<svg xmlns="http://www.w3.org/2000/svg" viewBox="0 0 63.2 63.2"><defs><style>.cls-1,.cls-2,.cls-3{fill: none; stroke: #003DA5;}.cls-1{stroke-linecap:round;stroke-linejoin:round;}.cls-1,.cls-2{stroke-width:3px;}.cls-2,.cls-3{stroke-miterlimit:10;}</style></defs><title>Data Assets</title><g id="Layer_2" data-name="Layer 2"><g id="Layer_1-2" data-name="Layer 1"><polygon class="cls-1" points="53.85 49.92 61.7 43.38 52.54 43.38 47.33 32.91 42.11 43.38 32.91 43.38 40.8 49.92 36.88 61.7 47.33 54.53 57.78 61.7 53.85 49.92"/><line class="cls-2" x1="1.5" y1="11.97" x2="53.85" y2="11.97"/><path class="cls-3" d="M9.35,5.43a1.31,1.31,0,1,0,1.31,1.31A1.31,1.31,0,0,0,9.35,5.43Z"/><path class="cls-3" d="M14.59,5.43A1.31,1.31,0,1,0,15.9,6.74a1.31,1.31,0,0,0-1.31-1.31Z"/><path class="cls-3" d="M19.82,5.43a1.31,1.31,0,1,0,1.31,1.31,1.31,1.31,0,0,0-1.31-1.31Z"/><path class="cls-2" d="M25.06,43.38H6.74A5.24,5.24,0,0,1,1.5,38.15V6.74A5.24,5.24,0,0,1,6.74,1.5H48.62a5.23,5.23,0,0,1,5.24,5.24V27.68"/></g></g></svg>