<svg xmlns="http://www.w3.org/2000/svg" viewBox="0 0 43.32 43.32"><defs><style>.cls-1{fill:#fff;}</style></defs><title>Datasets</title><g id="Layer_2" data-name="Layer 2"><g id="Layer_1-2" data-name="Layer 1"><path class="cls-1" d="M8,2.82V8H2.82V2.82H8M10.87,0H0V10.87H10.87V0Z"/><path class="cls-1" d="M24.27,2.82V8H19V2.82h5.22M27.09,0H16.22V10.87H27.09V0Z"/><path class="cls-1" d="M40.49,2.82V8H35.27V2.82h5.22M43.32,0H32.44V10.87H43.32V0Z"/><path class="cls-1" d="M8,19v5.22H2.82V19H8m2.82-2.82H0V27.09H10.87V16.22Z"/><path class="cls-1" d="M24.27,19v5.22H19V19h5.22m2.82-2.82H16.22V27.09H27.09V16.22Z"/><path class="cls-1" d="M40.49,19v5.22H35.27V19h5.22m2.82-2.82H32.44V27.09H43.32V16.22Z"/><path class="cls-1" d="M8,35.27v5.22H2.82V35.27H8m2.82-2.82H0V43.32H10.87V32.44Z"/><path class="cls-1" d="M24.27,35.27v5.22H19V35.27h5.22m2.82-2.82H16.22V43.32H27.09V32.44Z"/><path class="cls-1" d="M40.49,35.27v5.22H35.27V35.27h5.22m2.82-2.82H32.44V43.32H43.32V32.44Z"/></g></g></svg>