 <svg version="1.0" xmlns="http://www.w3.org/2000/svg" width="700.000000pt" height="700.000000pt" viewBox="0 0 700.000000 700.000000" preserveAspectRatio="xMidYMid meet">
<metadata>
Created by potrace 1.12, written by Peter Selinger 2001-2015
</metadata>
<g transform="translate(0.000000,700.000000) scale(0.100000,-0.100000)" fill="#000000" stroke="none">
<path d="M459 6858 c-4 -834 1 -6130 6 -6138 8 -13 5219 -14 5243 -1 16 8 17
214 14 3145 l-2 3136 -2630 0 -2630 0 -1 -142z m4938 -181 c4 -5 8 -1276 8
-2825 l0 -2817 -2320 0 -2320 0 -3 2814 c-1 2080 1 2817 9 2828 10 11 382 13
2314 11 1267 -2 2307 -7 2312 -11z"></path>
<path d="M1325 5970 c-3 -5 -7 -77 -8 -160 -2 -144 -1 -151 18 -156 11 -2 821
-3 1800 -2 l1780 3 0 160 0 160 -1792 3 c-1146 1 -1794 -1 -1798 -8z"></path>
<path d="M1323 4927 c-2 -4 -5 -78 -5 -165 l0 -157 1799 0 1798 0 3 148 c1 81
-1 154 -6 162 -7 13 -239 15 -1796 18 -983 1 -1790 -2 -1793 -6z"></path>
<path d="M3440 4011 c-102 -28 -188 -104 -248 -219 -19 -38 -23 -60 -23 -154
0 -86 3 -114 15 -127 9 -10 19 -32 22 -49 6 -29 -7 -52 -132 -238 -77 -113
-145 -216 -151 -228 -7 -11 -88 -133 -180 -271 -188 -279 -157 -252 -277 -239
-49 6 -86 -4 -168 -47 -20 -10 -42 -19 -47 -19 -9 0 -213 159 -231 179 -4 5
-110 92 -168 139 -14 10 -16 31 -13 120 2 107 2 108 -34 177 -46 89 -94 138
-170 174 -90 44 -163 56 -244 41 -115 -22 -203 -79 -263 -172 -87 -135 -89
-289 -3 -424 62 -96 155 -157 262 -172 67 -9 190 1 207 18 23 23 17 27 326
-226 160 -131 151 -119 155 -207 6 -140 90 -265 221 -327 59 -27 73 -30 169
-30 98 0 110 2 171 32 64 31 144 106 165 153 5 11 13 27 18 35 18 28 41 118
41 157 0 21 -9 67 -20 101 -11 35 -20 70 -20 77 0 7 55 95 123 195 67 99 127
189 132 198 11 19 165 250 178 267 4 6 54 80 110 165 l103 155 56 -3 c31 -1
81 4 110 12 55 14 134 51 144 67 10 18 37 8 119 -41 46 -27 85 -50 88 -50 9 0
290 -170 308 -186 10 -9 19 -39 23 -74 15 -131 90 -236 213 -297 71 -35 80
-37 172 -37 88 0 102 3 162 32 36 18 83 46 103 64 46 39 101 131 110 183 4 22
12 53 18 68 14 35 -13 161 -49 227 -47 86 -133 156 -235 191 -56 19 -173 26
-182 10 -4 -5 -24 -12 -45 -16 -22 -4 -45 -13 -52 -21 -6 -8 -17 -14 -24 -14
-7 0 -18 -7 -25 -15 -7 -8 -21 -15 -31 -15 -14 0 -179 92 -359 200 -8 5 -33
19 -55 30 -54 30 -85 59 -85 83 0 28 -28 123 -51 173 -32 69 -91 127 -171 167
-70 35 -78 37 -168 36 -52 -1 -106 -4 -120 -8z"></path>
<path d="M5942 6133 l3 -158 134 -3 c74 -1 140 -7 147 -13 10 -8 12 -601 12
-2815 0 -2406 -2 -2806 -14 -2818 -12 -13 -341 -14 -2314 -13 -2033 2 -2302 4
-2310 17 -5 8 -10 57 -10 108 l0 92 -155 0 -155 0 0 -265 0 -265 2630 0 2630
0 1 153 c3 967 -1 6119 -6 6127 -4 6 -113 10 -301 10 l-295 0 3 -157z"></path>
</g>
</svg>