<svg xmlns="http://www.w3.org/2000/svg" viewBox="0 0 50.2 48.11"><defs><style>.cls-1{fill:#fff;}</style></defs><title>Forums</title><g id="Layer_2" data-name="Layer 2"><g id="Layer_1-2" data-name="Layer 1"><path class="cls-1" d="M50.19,13.28C50.19,6,42.08,0,32.12,0,21.59,0,14.23,5.39,14.23,13.12a10.16,10.16,0,0,0,.14,1.7C6.44,14.84,0,20.23,0,26.87c0,2.47,0,19.2,0,19.2a2.06,2.06,0,0,0,3.75,1.16l5.76-8.34,4.87,0c7.95,0,14.41-5.41,14.41-12.05,0-5.33-4.16-9.85-9.91-11.44a4.15,4.15,0,0,1-.58-2.31c0-6.19,7.14-9,13.78-9,7.56,0,14,4.2,14,9.17,0,4.78,0,9.84,0,13.76l-3.44-5.25a2.06,2.06,0,0,0-2.25-.86,46.1,46.1,0,0,1-8.26,1.52v4.11A41.2,41.2,0,0,0,40,25.27l6.42,9.79a2.06,2.06,0,0,0,3.78-1.13S50.19,23,50.19,13.28ZM24.72,26.87c0,4.38-4.62,7.94-10.3,7.94l-5.93,0a2,2,0,0,0-1.71.89L4.14,39.48c0-5,0-11.19,0-12.62,0-4.38,4.62-7.94,10.3-7.94S24.72,22.49,24.72,26.87Z"/></g></g></svg>