<svg xmlns="http://www.w3.org/2000/svg" viewBox="0 0 48.55 48.55"><defs><style>.cls-1{fill:none;stroke:#fff;stroke-miterlimit:10;stroke-width:3px;}</style></defs><title>Metadata</title><g id="Layer_2" data-name="Layer 2"><g id="Layer_1-2" data-name="Layer 1"><path class="cls-1" d="M44.87,1.5H27.45A6.06,6.06,0,0,0,23.73,3L2.13,24.64a2.18,2.18,0,0,0,0,3.08L20.83,46.41a2.18,2.18,0,0,0,3.08,0l21.6-21.6A6.06,6.06,0,0,0,47,21.1V3.68A2.18,2.18,0,0,0,44.87,1.5ZM34,18.92a4.35,4.35,0,1,1,4.35-4.35A4.35,4.35,0,0,1,34,18.92Z"/></g></g></svg>