<svg xmlns="http://www.w3.org/2000/svg" viewBox="0 0 43 42.96"><defs><style>.cls-1{fill:#fff;}</style></defs><title>Tools</title><g id="Layer_2" data-name="Layer 2"><g id="Layer_1-2" data-name="Layer 1"><path class="cls-1" d="M24.78,43H18.57a2.37,2.37,0,0,1-2.37-2.37V36.37q-.74-.25-1.44-.57l-3.09,3.09a2.37,2.37,0,0,1-3.35,0L3.93,34.51a2.37,2.37,0,0,1,0-3.35l3-3Q6.63,27.6,6.4,27h-4A2.37,2.37,0,0,1,0,24.64V18.43a2.37,2.37,0,0,1,2.37-2.37H6.14a16,16,0,0,1,.72-1.77l-2.7-2.7a2.37,2.37,0,0,1,0-3.35L8.22,4.17a2.37,2.37,0,0,1,3.35,0L14.2,6.8a15.93,15.93,0,0,1,2-.84V2.37A2.37,2.37,0,0,1,18.57,0h6.21a2.37,2.37,0,0,1,2.37,2.37V6.19a15.93,15.93,0,0,1,1.5.67l2.69-2.69a2.37,2.37,0,0,1,3.35,0l4.39,4.39a2.37,2.37,0,0,1,0,3.35l-2.95,2.95q.25.59.46,1.2h4A2.37,2.37,0,0,1,43,18.43v6.21A2.37,2.37,0,0,1,40.63,27H36.32q-.27.69-.6,1.35l3.12,3.12a2.37,2.37,0,0,1,0,3.35l-4.07,4.07a2.37,2.37,0,0,1-3.35,0l-3.21-3.21q-.53.25-1.07.46v4.45A2.37,2.37,0,0,1,24.78,43ZM19.2,40h4.95V35.08a1.5,1.5,0,0,1,1.06-1.43,13,13,0,0,0,2.56-1.1,1.5,1.5,0,0,1,1.8.25l3.54,3.54,3.18-3.18L32.8,29.68a1.5,1.5,0,0,1-.23-1.83,13,13,0,0,0,1.25-2.79A1.5,1.5,0,0,1,35.26,24H40V19.06H35.46A1.5,1.5,0,0,1,34,17.93a13,13,0,0,0-1-2.71,1.5,1.5,0,0,1,.27-1.74l3.24-3.24L33,6.74l-3,3a1.5,1.5,0,0,1-1.84.22,13,13,0,0,0-3-1.32,1.5,1.5,0,0,1-1-1.76V3H19.2V7a1.45,1.45,0,0,1-1.12,1.53A13,13,0,0,0,14.7,9.94a1.5,1.5,0,0,1-1.83-.23l-3-3L6.72,9.91l3,3a1.5,1.5,0,0,1,.24,1.8,13,13,0,0,0-1.28,3.19,1.5,1.5,0,0,1-1.45,1.13H3V24H7.46A1.5,1.5,0,0,1,8.9,25.06a13,13,0,0,0,1.16,2.64,1.5,1.5,0,0,1-.24,1.81L6.5,32.83l3.5,3.5,3.4-3.4a1.5,1.5,0,0,1,1.77-.26,13,13,0,0,0,2.91,1.14,1.5,1.5,0,0,1,1.12,1.45Zm21.43-20.9h0ZM21.36,29.39a8.23,8.23,0,1,1,8.23-8.23A8.24,8.24,0,0,1,21.36,29.39Zm0-13.45a5.23,5.23,0,1,0,5.23,5.23A5.23,5.23,0,0,0,21.36,15.94Z"/></g></g></svg>