<?xml version="1.0" standalone="no"?>
<!DOCTYPE svg PUBLIC "-//W3C//DTD SVG 20010904//EN"
 "http://www.w3.org/TR/2001/REC-SVG-20010904/DTD/svg10.dtd">
<svg version="1.0" xmlns="http://www.w3.org/2000/svg"
 width="139.000000pt" height="128.000000pt" viewBox="0 0 139.000000 128.000000"
 preserveAspectRatio="xMidYMid meet">

<g transform="translate(0.000000,128.000000) scale(0.100000,-0.100000)"
fill="#fff" stroke="none">
<path d="M510 1223 c-21 -19 -31 -39 -33 -61 -2 -28 -17 -46 -106 -124 -96
-84 -108 -92 -150 -94 -35 -2 -51 -9 -69 -29 -29 -34 -30 -102 -2 -133 19 -20
20 -35 20 -268 0 -231 -1 -247 -20 -271 -31 -39 -27 -107 6 -138 33 -31 82
-33 117 -5 23 19 40 20 257 20 217 0 234 -1 257 -20 59 -46 153 -2 153 72 1
29 12 43 105 123 88 75 110 89 135 87 86 -9 143 93 90 161 -19 24 -20 40 -20
272 0 232 1 248 20 272 46 58 12 148 -60 159 -29 5 -42 0 -74 -25 l-39 -31
-215 0 -214 0 -35 30 c-43 38 -82 39 -123 3z m580 -107 c0 -3 -44 -43 -97 -89
-91 -78 -101 -85 -140 -84 -31 1 -48 -4 -66 -21 -20 -19 -34 -22 -110 -22
l-87 0 0 80 c0 64 3 80 15 80 8 0 24 14 37 30 l22 30 213 0 c117 0 213 -2 213
-4z m-578 -136 l-4 -80 -91 0 -92 0 25 24 c40 39 154 136 160 136 3 0 4 -36 2
-80z m666 -158 l2 -232 -41 -40 -42 -40 -99 0 -98 0 0 123 c0 105 3 126 20
152 11 17 20 46 20 65 0 32 9 44 98 122 142 128 136 134 140 -150z m-668 -129
c0 -109 -3 -140 -15 -154 -9 -9 -17 -33 -18 -54 -3 -33 -13 -46 -102 -126 -55
-49 -108 -89 -117 -89 -17 0 -18 18 -18 239 l0 239 25 16 c14 10 31 28 37 42
11 23 15 24 110 24 l98 0 0 -137z m255 107 c9 -17 27 -36 40 -42 24 -11 25
-14 25 -130 l0 -118 -80 0 -80 0 -40 40 -40 40 0 120 0 120 80 0 c78 0 80 0
95 -30z m65 -445 c0 -64 -3 -85 -13 -85 -16 0 -51 -37 -60 -62 -6 -16 -26 -18
-227 -18 -121 0 -220 4 -220 9 0 5 45 49 101 97 98 87 102 89 151 89 42 0 53
4 71 27 21 25 27 27 110 27 l87 1 0 -85z m259 78 c-1 -12 -166 -153 -178 -153
-7 0 -11 31 -11 80 l0 80 95 0 c52 0 95 -3 94 -7z"/>
</g>
</svg>
