<svg xmlns="http://www.w3.org/2000/svg" viewBox="0 0 47.5 47.5"><defs><style>.cls-1{fill:#fff;}</style></defs><title>geographic</title><g id="Layer_2" data-name="Layer 2"><g id="Layer_1-2" data-name="Layer 1"><path class="cls-1" d="M30.88,43.24a20.77,20.77,0,1,1-4.81-40.1L21.07,6A1.5,1.5,0,0,0,21,8.55L23.22,10v3.5H13.6a1.5,1.5,0,0,0-1.26.69L8,21a1.5,1.5,0,0,0,.32,2l9.11,7.29v4.12a1.5,1.5,0,0,0,3,0V29.55a1.5,1.5,0,0,0-.56-1.17l-8.62-6.89,3.18-4.95h10.3a1.5,1.5,0,0,0,1.5-1.5V9.24A1.5,1.5,0,0,0,25.55,8l-.89-.59L30.4,4.11A20.78,20.78,0,0,1,38.35,9l-2.43,4.52H33.43a1.5,1.5,0,0,0-1.06.44L29,17.37a1.5,1.5,0,1,0,2.12,2.12L34,16.54h2.76a1.5,1.5,0,0,0,1.32-.79l2.31-4.28A20.61,20.61,0,0,1,44.5,23.75a1.5,1.5,0,0,0,3,0A23.65,23.65,0,0,0,41.4,7.88a1.48,1.48,0,0,0-.25-.27A23.79,23.79,0,0,0,30.7,1l-.1,0a23.75,23.75,0,1,0,1.31,45,1.5,1.5,0,0,0-1-2.82Z"/><path class="cls-1" d="M38.26,23.22A9.25,9.25,0,0,0,29,32.46C29,37.14,36.28,46,37.11,47a1.5,1.5,0,0,0,2.3,0c.83-1,8.09-9.82,8.09-14.5A9.25,9.25,0,0,0,38.26,23.22Zm0,20.39C35.48,40,32,34.83,32,32.46a6.24,6.24,0,0,1,12.48,0C44.5,34.83,41,40,38.26,43.61Z"/><path class="cls-1" d="M38.26,28.05a4.4,4.4,0,1,0,4.4,4.4A4.41,4.41,0,0,0,38.26,28.05Zm0,5.8a1.4,1.4,0,1,1,1.4-1.4A1.4,1.4,0,0,1,38.26,33.86Z"/></g></g></svg>