<svg xmlns="http://www.w3.org/2000/svg" viewBox="0 0 54.5 54.5"><defs><style>.cls-1{fill:#fff;}</style></defs><title>government</title><g id="Layer_2" data-name="Layer 2"><g id="Layer_1-2" data-name="Layer 1"><path class="cls-1" d="M53,26.87H44.33l-1-.41v-7a16.07,16.07,0,0,0-14.55-16V1.5a1.5,1.5,0,0,0-3,0V3.43a16.07,16.07,0,0,0-14.55,16v7l-1,.41H1.5A1.5,1.5,0,0,0,0,28.37V46.28a1.5,1.5,0,0,0,1.5,1.5H9V53a1.5,1.5,0,0,0,1.5,1.5H44a1.5,1.5,0,0,0,1.5-1.5V47.78H53a1.5,1.5,0,0,0,1.5-1.5V28.37A1.5,1.5,0,0,0,53,26.87ZM32.11,47V34.35h3.72V47Zm-6.72,0V34.35h3.72V47Zm-6.72,0V34.35h3.72V47ZM12,47V34.35h3.72V47ZM41.22,28.86h0l1.32.53v2H12v-2l15.29-6.12Zm-2.39,5.49h3.72V47H38.83ZM29.44,20.91H40.3v4.35ZM27.25,6.36a13.07,13.07,0,0,1,13,11.55H14.29A13.07,13.07,0,0,1,27.25,6.36ZM14.2,20.91H25.06L14.2,25.26ZM3,44.78V29.87H9V44.78Zm9,6.72V50H42.54V51.5ZM51.5,44.78h-6V29.87h6Z"/></g></g></svg>