<svg viewBox="0 0 96 96" xmlns="http://www.w3.org/2000/svg" xmlns:xlink="http://www.w3.org/1999/xlink" id="Icons_Users_M" overflow="hidden"><g id="Icons"><path d="M24 40.005C28.9706 40.005 33 35.9756 33 31.005 33 26.0344 28.9706 22.005 24 22.005 19.0294 22.005 15 26.0344 15 31.005 15 35.9756 19.0294 40.005 24 40.005ZM24 24C27.866 24 31 27.134 31 31 31 34.866 27.866 38 24 38 20.134 38 17 34.866 17 31 17.005 27.1361 20.1361 24.005 24 24Z" stroke="#FFFFFF" fill="#FFFFFF"/><path d="M72 40.005C76.9706 40.005 81 35.9756 81 31.005 81 26.0344 76.9706 22.005 72 22.005 67.0294 22.005 63 26.0344 63 31.005 63 35.9756 67.0294 40.005 72 40.005ZM72 24C75.866 24 79 27.134 79 31 79 34.866 75.866 38 72 38 68.134 38 65 34.866 65 31 65.005 27.1361 68.1361 24.005 72 24Z" stroke="#FFFFFF" fill="#FFFFFF"/><path d="M87.9 47.489C85.3512 45.5014 82.4007 44.0918 79.253 43.358 76.8966 42.6543 74.4582 42.2616 72 42.19 69.5433 42.1925 67.1026 42.5851 64.769 43.353 63.1098 43.7825 61.5034 44.3946 59.979 45.178 59.9545 46.0005 59.8446 46.8182 59.651 47.618 61.4293 46.5838 63.3393 45.7947 65.329 45.272 67.4823 44.5645 69.7334 44.1994 72 44.19 74.2861 44.2637 76.553 44.6334 78.744 45.29 81.6246 45.9523 84.3251 47.2374 86.656 49.055L86.742 49.119C87.5645 49.712 88.0365 50.6767 88 51.69L88 59.19 90 59.19 90 51.69C90.0365 50.0288 89.2506 48.4567 87.9 47.489Z" stroke="#FFFFFF" fill="#FFFFFF"/><path d="M36.307 47.463C36.125 46.6727 36.0244 45.8658 36.007 45.055 34.481 44.3345 32.888 43.7651 31.251 43.355 28.8951 42.6525 26.4574 42.2608 24 42.19 21.5433 42.1925 19.1026 42.5851 16.769 43.353 13.6391 44.2064 10.6892 45.6188 8.062 47.522 6.76825 48.5178 6.00955 50.0574 6.008 51.69L6.008 59.19 8.008 59.19 8.008 51.69C8.00987 50.681 8.47789 49.7294 9.276 49.112 11.7094 47.3588 14.4386 46.058 17.333 45.272 19.4851 44.5649 21.7348 44.1998 24 44.19 26.2861 44.2637 28.553 44.6335 30.744 45.29 32.686 45.766 34.5565 46.4967 36.307 47.463Z" stroke="#FFFFFF" fill="#FFFFFF"/><path d="M63.9 61.3C61.3514 59.3121 58.4008 57.9025 55.253 57.169 52.8965 56.4654 50.4582 56.0725 48 56 45.544 56.0024 43.1039 56.395 40.771 57.163 37.6408 58.0158 34.6909 59.4282 32.064 61.332 30.7661 62.3255 30.0035 63.8655 30 65.5L30 73 32 73 32 65.5C32.0018 64.4907 32.4703 63.539 33.269 62.922 35.7018 61.1684 38.4308 59.8676 41.325 59.082 43.4796 58.3741 45.7321 58.009 48 58 50.2865 58.0733 52.5537 58.443 54.745 59.1 57.6254 59.7614 60.3258 61.0462 62.656 62.864L62.742 62.928C63.5647 63.5214 64.0366 64.4864 64 65.5L64 73 66 73 66 65.5C66.0362 63.8392 65.2504 62.2675 63.9 61.3Z" stroke="#FFFFFF" fill="#FFFFFF"/><path d="M48 53.815C52.9706 53.815 57 49.7856 57 44.815 57 39.8444 52.9706 35.815 48 35.815 43.0294 35.815 39 39.8444 39 44.815 39 49.7856 43.0294 53.815 48 53.815ZM48 37.815C51.866 37.815 55 40.949 55 44.815 55 48.681 51.866 51.815 48 51.815 44.134 51.815 41 48.681 41 44.815 41.0028 40.9493 44.1343 37.8155 48 37.81Z" stroke="#FFFFFF" fill="#FFFFFF"/></g></svg>