<svg xmlns="http://www.w3.org/2000/svg" viewBox="0 0 190.5 72"><defs><style>.cls-1{fill:#fff;}</style></defs><title>Sentry_Logo_Rev</title><g id="Layer_2" data-name="Layer 2"><g id="Layer_1-2" data-name="Layer 1"><path id="Sentry_Logo" data-name="Sentry Logo" class="cls-1" d="M154,60.82h.63V57h1.25v-.54h-3.12V57H154Zm2.5,0h.57l.21-2.61c0-.54.06-.91.06-1h0a9.79,9.79,0,0,0,.39,1.18l1,2.46h.54l1-2.54a7.54,7.54,0,0,0,.36-1.1h0c0,.12,0,.55,0,1l.22,2.64h.61l-.42-4.31h-.71l-1.06,2.63a6,6,0,0,0-.34,1h0a9.06,9.06,0,0,0-.34-1l-1.06-2.64h-.71ZM177,1.46c-6.24,0-9.12,4.46-9.12,7.9,0,3.83,2.59,5.49,5.23,7.16s5.5,3.49,5.5,7.7c0,5.41-4.73,10.4-13.36,10.28v3.75a25.5,25.5,0,0,0,5.5.7,19.84,19.84,0,0,0,19.71-20C190.5,9.77,183.73,1.46,177,1.46Zm-9.61,21.81c0-5.14-7.62-5-7.62-11.16,0-5.72,5.14-8.33,6.86-9.68L165.1,0C159,1.87,151.37,7.49,151.37,17.62c0,5.66,3.91,11.55,9.58,11.55C164.55,29.17,167.43,27.09,167.43,23.27ZM6.81,54,5.64,50.22H0l.53,10a42.17,42.17,0,0,0,13,1.92c10.29,0,16.19-4.69,16.19-12.88,0-7.47-4.36-9.56-11-12l-3.35-1.23c-4.1-1.5-6.19-2.78-6.19-5.67s2.3-4.51,6.16-4.51a11.86,11.86,0,0,1,4,.6,2.56,2.56,0,0,1,1.75,1.75l.91,3H27.6l-.52-9.19a37.69,37.69,0,0,0-11.33-1.52C2.41,20.58.41,28,.41,32.41c0,6.74,3.82,9.3,9.46,11.37.83.3,2.47,1,3.3,1.29,3.87,1.48,7.1,2.91,7.1,6.31s-2.6,5.39-6.77,5.39a12.91,12.91,0,0,1-4.57-.68A3.25,3.25,0,0,1,6.81,54ZM45.18,33.91c-7.6,0-13,5-13,13.61s4.5,14,13.71,14a17,17,0,0,0,9.6-2.55V54.87a22.44,22.44,0,0,1-7.6,1.25c-4.6,0-7.3-2.2-7.7-7.55H56.79C56.79,38.36,53.19,33.91,45.18,33.91Zm-5,11c.35-4.8,2.1-6.45,4.76-6.45s4.1,1.6,4.1,6.15Zm53.84-12.6c-.64,3.13-4.71,3.44-4.71,3.44v3.4H93V54.32c0,5.3,2.8,7.05,7.85,7.05a12,12,0,0,0,6.1-1.5V56a11.73,11.73,0,0,1-2.7.35c-2.5,0-3.5-.9-3.5-3.4V39.11h6.58V34.46h-6.58v-6.2H94.71C94.35,31.11,94.07,32.26,94.07,32.26Zm15.88,28.55H124.7V57.17s-2.29-.13-2.65-.22a1.51,1.51,0,0,1-1.2-1.65V42a12.19,12.19,0,0,1,5.8-1.2,10.18,10.18,0,0,1,2.2.2v-6.8a5.16,5.16,0,0,0-1.35-.2,8.08,8.08,0,0,0-6.7,4.1h-.3V35.43c-.08-1.62-1.44-1.39-1.44-1.39l-9.21,1.06v3.8l3.25.8V55.26a1.49,1.49,0,0,1-1.21,1.68l-1.94.22ZM62.3,55.26a1.49,1.49,0,0,1-1.21,1.68l-1.94.22v3.65H72.66V57.17s-1-.13-1.4-.22a1.51,1.51,0,0,1-1.21-1.65V40.61a12.24,12.24,0,0,1,4.15-.85c2.55,0,3.8.8,3.8,3.4v12.1a1.55,1.55,0,0,1-1.21,1.68l-1.39.22v3.65H88.77V57.17a17.32,17.32,0,0,1-1.8-.22,1.53,1.53,0,0,1-1.2-1.65V40.56c0-4.8-2.75-6.65-7-6.65A14.48,14.48,0,0,0,70,37h-.3V35.43C69.62,33.81,68.26,34,68.26,34l-9.21,1.06v3.8l3.25.8Zm77.24,4.46-6.08-20.8L131,38.21V34.48h13.46v3.73l-2.72.6,3.94,14.93h.2l5.64-14.93-2.72-.6V34.48h11v3.73l-2.37.71-9.93,26c-1.77,4.69-4,7.06-9,7.06a13.45,13.45,0,0,1-4.69-.86V66.35a11.85,11.85,0,0,0,2.72.35c2.37,0,4-.67,5.05-2.92.3-.53,1.19-3,1.19-3h-1.84A1.32,1.32,0,0,1,139.55,59.72Z"/></g></g></svg>