<svg xmlns="http://www.w3.org/2000/svg" viewBox="0 0 52.21 52.21"><defs><style>.cls-1{fill:#fff;}</style></defs><title>weather</title><g id="Layer_2" data-name="Layer 2"><g id="Layer_1-2" data-name="Layer 1"><path class="cls-1" d="M20.76,5.14a1.5,1.5,0,0,0,1.5-1.5V1.5a1.5,1.5,0,0,0-3,0V3.64A1.5,1.5,0,0,0,20.76,5.14Z"/><path class="cls-1" d="M6.86,9A1.5,1.5,0,0,0,9,6.86L6.84,4.72A1.5,1.5,0,0,0,4.72,6.84Z"/><path class="cls-1" d="M33.59,9.42A1.5,1.5,0,0,0,34.65,9l2.14-2.14a1.5,1.5,0,0,0-2.12-2.12L32.53,6.86a1.5,1.5,0,0,0,1.06,2.56Z"/><path class="cls-1" d="M3.64,19.26H1.5a1.5,1.5,0,0,0,0,3H3.64a1.5,1.5,0,0,0,0-3Z"/><path class="cls-1" d="M48.74,34.49a7.93,7.93,0,0,0-7.49-9.94,13.26,13.26,0,0,0-25,3.44,12.23,12.23,0,0,0,2.36,24.23H42.15a10.1,10.1,0,0,0,6.59-17.72ZM42.15,49.21H18.62a9.23,9.23,0,0,1-.88-18.41,1.5,1.5,0,0,0,1.35-1.36,10.33,10.33,0,0,1,10.22-9.38,10.2,10.2,0,0,1,9.57,6.58,1.5,1.5,0,0,0,1.58.95,4.92,4.92,0,0,1,5.12,6.83,1.5,1.5,0,0,0,.53,1.84,7.1,7.1,0,0,1-4,13Z"/><path class="cls-1" d="M8.63,26.45a1.5,1.5,0,0,0,1.42-2,11.08,11.08,0,0,1-.63-3.69,11.33,11.33,0,0,1,19.81-7.51,1.5,1.5,0,0,0,2.24-2,14.33,14.33,0,0,0-25.06,9.5,14.1,14.1,0,0,0,.8,4.69A1.5,1.5,0,0,0,8.63,26.45Z"/></g></g></svg>