<svg id="Layer_1" data-name="Layer 1" xmlns="http://www.w3.org/2000/svg" xmlns:xlink="http://www.w3.org/1999/xlink" viewBox="0 0 173 65.44"><defs><style>.cls-1{fill:url(#linear-gradient);}.cls-2{fill:url(#linear-gradient-2);}.cls-3{fill:url(#linear-gradient-3);}.cls-4{fill:#003da5;}</style><linearGradient id="linear-gradient" x1="150.19" y1="568.79" x2="173.07" y2="568.79" gradientTransform="translate(0 -550.33)" gradientUnits="userSpaceOnUse"><stop offset="0.35" stop-color="#00bff2"/><stop offset="0.98" stop-color="#00a3e0"/></linearGradient><linearGradient id="linear-gradient-2" x1="157.39" y1="581.85" x2="157.39" y2="565.38" gradientTransform="translate(0 -550.33)" gradientUnits="userSpaceOnUse"><stop offset="0" stop-color="#00bff2"/><stop offset="0.4" stop-color="#0488c6"/><stop offset="0.75" stop-color="#0476b7"/></linearGradient><linearGradient id="linear-gradient-3" x1="137.83" y1="555.81" x2="152.92" y2="569" gradientTransform="translate(0 -550.33)" gradientUnits="userSpaceOnUse"><stop offset="0" stop-color="#4f86c6"/><stop offset="0.54" stop-color="#3155a5"/><stop offset="0.81" stop-color="#003da5"/></linearGradient></defs><title>sentry_logo_tm</title><g id="Layer_1-2" data-name="Layer 1"><path class="cls-1" d="M160.79,1.4c-5.7,0-8.3,4.1-8.3,7.2,0,3.5,2.4,5,4.7,6.5,3.9,1.3,7.3,3.5,7.3,7.3,0,5.6-5.7,10-14.41,9.11v3.4a20.75,20.75,0,0,0,5,.6A18,18,0,0,0,173,17.41h0C173.1,8.91,167,1.4,160.79,1.4Z"/><path class="cls-2" d="M150.19,31.42c7.8.1,12.11-4.4,12.11-9.31,0-3.8-2.5-5.4-5-7,3.9,1.3,7.3,3.5,7.3,7.3C164.59,28,158.89,32.32,150.19,31.42Z"/><path class="cls-3" d="M146.28,26.52c-5.2,0-8.7-5.3-8.7-10.51,0-9.21,6.9-14.31,12.41-16l1.4,2.2c-1.6,1.2-6.2,3.6-6.2,8.81,0,5.6,6.9,5.4,6.9,10.11C152.19,24.61,149.49,26.52,146.28,26.52Z"/><path id="Sentry" class="cls-4" d="M140,55.33h.6v-3.5h1.1v-.4h-2.8v.4H140v3.5Zm2.2,0h.5l.2-2.4a5.53,5.53,0,0,1,.1-.9h0a4.88,4.88,0,0,0,.4,1.1l.9,2.2h.5l.9-2.3c.1-.3.2-.7.3-1h0v.9l.3,2.4h.6l-.4-3.9h-.6l-1,2.4-.3.9h0l-.3-.9-1-2.4h-.6Zm-136-6.2-1.1-3.4H0l.5,9.11a36.29,36.29,0,0,0,11.81,1.7c9.31,0,14.71-4.3,14.71-11.71,0-6.8-4-8.7-10-10.91l-3-1.1c-3.7-1.4-5.6-2.5-5.6-5.1s2.1-4.1,5.6-4.1a14.23,14.23,0,0,1,3.6.5,2.17,2.17,0,0,1,1.6,1.6l.8,2.7h5.1l-.5-8.3a35.6,35.6,0,0,0-10.31-1.4C2.2,18.71.4,25.41.4,29.42c0,6.1,3.5,8.4,8.6,10.31.8.3,2.2.9,3,1.2,3.5,1.3,6.4,2.6,6.4,5.7s-2.4,4.9-6.1,4.9a15.23,15.23,0,0,1-4.2-.6A2.65,2.65,0,0,1,6.2,49.13ZM41,30.82c-6.9,0-11.81,4.5-11.81,12.41s4.1,12.71,12.51,12.71a15.58,15.58,0,0,0,8.7-2.3v-3.7a18.17,18.17,0,0,1-6.9,1.1c-4.2,0-6.6-2-7-6.9H51.63C51.63,34.92,48.33,30.82,41,30.82Zm-4.5,10c.3-4.4,1.9-5.9,4.3-5.9s3.7,1.5,3.7,5.7ZM85.45,29.42c-.6,2.8-4.3,3.1-4.3,3.1v3.1h3.4V49.43c0,4.8,2.5,6.4,7.1,6.4a10.74,10.74,0,0,0,5.5-1.4v-3.5a10.08,10.08,0,0,1-2.5.3c-2.3,0-3.2-.8-3.2-3.1V35.62h6v-4.2h-6v-5.6h-5.5a25.19,25.19,0,0,1-.5,3.6ZM99.86,55.33h13.41v-3.4s-2.1-.1-2.4-.2a1.34,1.34,0,0,1-1.1-1.5v-12a10.55,10.55,0,0,1,5.3-1.1,6.81,6.81,0,0,1,2,.2v-6.2a5,5,0,0,0-1.2-.2,7.47,7.47,0,0,0-6.1,3.7h-.3v-2.4a1.13,1.13,0,0,0-1-1.3h-.4l-8.4,1v3.5l3,.7V50.33a1.34,1.34,0,0,1-1.1,1.5l-1.8.2.1,3.3Zm-43.22-5.1a1.34,1.34,0,0,1-1.1,1.5l-1.8.2v3.3H66v-3.3s-.9-.1-1.3-.2a1.34,1.34,0,0,1-1.1-1.5V36.92a12.28,12.28,0,0,1,3.8-.8c2.3,0,3.5.7,3.5,3.1v11a1.34,1.34,0,0,1-1.1,1.5l-1.3.2v3.3H80.65v-3.3a8.76,8.76,0,0,1-1.6-.2,1.34,1.34,0,0,1-1.1-1.5V36.92c0-4.4-2.5-6-6.4-6a13,13,0,0,0-8,2.8h-.3v-1.4a1.13,1.13,0,0,0-1-1.3h-.3l-8.4,1v3.5l3,.7C56.63,36.12,56.63,50.23,56.63,50.23Zm70.14,4.1-5.5-18.91-2.2-.6v-3.4h12.21v3.4l-2.5.5,3.6,13.61h.2l5.1-13.61-2.5-.5v-3.4h10v3.4l-2.2.6L134,59c-1.6,4.3-3.6,6.4-8.2,6.4a12.61,12.61,0,0,1-4.3-.8v-4.3a10.08,10.08,0,0,0,2.5.3c2.2,0,3.6-.6,4.6-2.7.3-.5,1.1-2.7,1.1-2.7H128a1.15,1.15,0,0,1-1.2-.9Z"/></g></svg>